<?xml version="1.0" encoding="UTF-8"?>
<svg version="1.1" xmlns="http://www.w3.org/2000/svg" width="512" height="512">
<path d="M0 0 C1.71220576 0.6776161 3.43279967 1.33396462 5.15478516 1.98632812 C44.79671391 17.55798479 80.96502917 46.32962576 106.97900391 79.78320312 C108.18556641 81.29720703 108.18556641 81.29720703 109.41650391 82.84179688 C117.84815283 93.49051344 124.56469079 104.90187337 131.10400391 116.78320312 C131.59497559 117.67257568 132.08594727 118.56194824 132.59179688 119.47827148 C138.64108694 130.60106162 143.61772988 141.88154524 147.53930664 153.92211914 C148.16822574 155.8509839 148.81000012 157.77521322 149.45361328 159.69921875 C152.84288652 169.9177634 155.59875563 180.20606934 157.60400391 190.78320312 C157.84376953 192.02070313 158.08353516 193.25820312 158.33056641 194.53320312 C159.94814563 204.23794499 160.13734587 214.04549516 160.14697266 223.86132812 C160.15030106 225.07157654 160.15362946 226.28182495 160.15705872 227.52874756 C160.16208942 230.07336043 160.16446824 232.61797982 160.16430664 235.16259766 C160.16649011 239.00890218 160.18467954 242.85491801 160.20361328 246.70117188 C160.23310615 259.21040563 160.16971504 271.44111637 157.97900391 283.78320312 C157.71349731 285.28898926 157.71349731 285.28898926 157.44262695 286.82519531 C156.91977227 289.57448259 156.34204736 292.30271206 155.72900391 295.03320312 C155.51284424 296.00354492 155.29668457 296.97388672 155.07397461 297.97363281 C151.27907921 314.58188091 146.08176825 330.29589551 138.97900391 345.78320312 C138.66737305 346.46302246 138.35574219 347.1428418 138.03466797 347.84326172 C130.67729695 363.65187744 121.68935382 379.01857091 110.97900391 392.78320312 C110.106169 393.93391188 109.23380443 395.08497749 108.36181641 396.23632812 C103.58493825 402.48641788 98.70706643 408.3214753 93.01806641 413.77929688 C91.08474294 415.67928718 89.34517562 417.64532547 87.60400391 419.72070312 C83.20437271 424.84497946 78.22807729 429.53519681 72.97900391 433.78320312 C72.31900391 433.78320312 71.65900391 433.78320312 70.97900391 433.78320312 C70.64900391 434.77320313 70.31900391 435.76320313 69.97900391 436.78320312 C66.70524248 439.59412242 63.17109862 442.06375218 59.6640625 444.57470703 C58.11091865 445.68859606 56.56975578 446.81914049 55.02978516 447.95117188 C40.08334238 458.67744258 23.78353734 467.35995154 6.97900391 474.78320312 C5.99544922 475.22921875 5.01189453 475.67523438 3.99853516 476.13476562 C-10.09777238 482.2981723 -24.78319295 486.71673056 -39.77099609 490.09570312 C-40.83390869 490.33796631 -41.89682129 490.58022949 -42.99194336 490.82983398 C-59.30065746 494.35378998 -75.24211138 495.131973 -91.88452148 495.09887695 C-95.18621116 495.0957244 -98.48699491 495.11924214 -101.78857422 495.14453125 C-152.44770039 495.29236457 -202.69679004 478.95870099 -243.80224609 449.32617188 C-246.06630747 447.70096525 -246.06630747 447.70096525 -248.80224609 446.20898438 C-249.90052734 445.50322266 -249.90052734 445.50322266 -251.02099609 444.78320312 C-251.02099609 444.12320312 -251.02099609 443.46320313 -251.02099609 442.78320312 C-251.8234375 442.42548828 -251.8234375 442.42548828 -252.64208984 442.06054688 C-271.16159436 432.11657647 -286.8095005 413.52757579 -299.02099609 396.78320312 C-299.98477484 395.48944032 -300.94965578 394.19649801 -301.91552734 392.90429688 C-316.23805287 373.65832877 -327.27747116 353.14959838 -336.02099609 330.78320312 C-336.35486328 329.93371094 -336.68873047 329.08421875 -337.03271484 328.20898438 C-360.99741391 264.83987894 -356.83210012 192.06689667 -329.33251953 130.61962891 C-324.06276055 119.2227451 -318.10300761 108.16113885 -311.02099609 97.78320312 C-310.47056641 96.97109375 -309.92013672 96.15898438 -309.35302734 95.32226562 C-307.60539922 92.78680515 -305.81909273 90.28308853 -304.02099609 87.78320312 C-303.38935547 86.88214844 -302.75771484 85.98109375 -302.10693359 85.05273438 C-284.06662472 60.01927206 -259.95394385 38.15017874 -233.82861328 21.90820312 C-232.63103441 21.16287041 -231.4363177 20.41291752 -230.24462891 19.65820312 C-162.81796322 -22.99721635 -73.77059417 -29.20883052 0 0 Z " fill="#315377" transform="translate(352.02099609375,17.216796875)"/>
<path d="M0 0 C3.3062064 1.20886667 6.24798758 3.08322106 9.27050781 4.86376953 C40.40677839 22.6767783 72.20144053 24.75586375 106.95800781 15.80126953 C110.55943707 14.79192676 114.10961445 13.70900351 117.65722656 12.52392578 C118.80835938 12.14107422 119.95949219 11.75822266 121.14550781 11.36376953 C122.15871094 11.00541016 123.17191406 10.64705078 124.21582031 10.27783203 C127.58942212 9.62942389 129.10603062 9.94444728 132.02050781 11.73876953 C133.72834378 15.54550628 132.42798636 18.62637258 131.27441406 22.47314453 C131.07231827 23.158815 130.87022247 23.84448547 130.66200256 24.55093384 C130.21523138 26.06281413 129.76389168 27.57334983 129.30865479 29.08270264 C128.30759917 32.40195686 127.32798214 35.72742216 126.34716797 39.05270386 C125.80461814 40.89182599 125.26096069 42.73062166 124.71630859 44.56912231 C122.39563874 52.4167067 120.13903032 60.28176899 117.89941406 68.15283203 C117.54776688 69.38839844 117.19611969 70.62396484 116.83381653 71.89697266 C115.42449967 76.85179204 114.01641075 81.80695832 112.6098938 86.76257324 C110.99661969 92.44333546 109.37508355 98.12127178 107.72851562 103.79248047 C106.66223511 107.46681953 105.6422298 111.14634177 104.6796875 114.84912109 C104.280537 116.30459704 103.88114562 117.76000697 103.48144531 119.21533203 C103.16739746 120.42527832 102.85334961 121.63522461 102.52978516 122.88183594 C100.44486256 126.82841701 98.17424168 127.36576161 94.02050781 128.73876953 C92.85974731 129.19401001 92.85974731 129.19401001 91.67553711 129.65844727 C55.87653995 142.80112732 19.29580026 146.03985331 -16.20410156 129.71582031 C-23.38615275 126.17981043 -30.27876399 122.11475529 -36.97949219 117.73876953 C-36.32556132 110.65738657 -34.60961112 104.0238606 -32.72949219 97.17626953 C-32.25479492 95.42830078 -32.25479492 95.42830078 -31.77050781 93.64501953 C-29.83529558 86.6028882 -27.68892102 79.71240774 -25.28808594 72.81689453 C-23.07217931 66.16744483 -21.42593751 59.33740172 -19.63793945 52.56396484 C-17.68589255 45.22143224 -15.55198733 37.97615959 -13.18554688 30.75756836 C-11.78849593 26.44999462 -10.52819059 22.13107681 -9.37792969 17.75048828 C-9.11246338 16.74018555 -8.84699707 15.72988281 -8.57348633 14.68896484 C-8.06230017 12.71831905 -7.56106611 10.74505799 -7.07104492 8.76904297 C-6.84102783 7.88120117 -6.61101074 6.99335938 -6.37402344 6.07861328 C-6.07782104 4.89319946 -6.07782104 4.89319946 -5.77563477 3.68383789 C-4.62424542 0.8708606 -3.0976371 -0.40879029 0 0 Z " fill="#F6BF33" transform="translate(258.9794921875,269.26123046875)"/>
<path d="M0 0 C0.73279678 -0.0066568 1.46559357 -0.0133136 2.22059631 -0.02017212 C3.76951611 -0.03025919 5.31847903 -0.03499036 6.86743164 -0.03466797 C9.18518324 -0.03899258 11.50095016 -0.07521394 13.81835938 -0.11328125 C28.51996912 -0.22488706 40.85085666 3.23171199 54.28515625 9.3359375 C54.28515625 9.9959375 54.28515625 10.6559375 54.28515625 11.3359375 C55.12304688 11.57054688 55.9609375 11.80515625 56.82421875 12.046875 C60.85204219 13.54708012 64.10361638 15.58496097 67.66015625 17.9609375 C68.30082031 18.38117188 68.94148437 18.80140625 69.6015625 19.234375 C71.16671323 20.26223518 72.72649939 21.29825636 74.28515625 22.3359375 C73.72134002 26.76908079 72.93857314 30.93102009 71.66015625 35.2109375 C70.36122883 39.63468676 69.07756522 44.05934251 67.8515625 48.50390625 C64.05054493 62.27203658 60.02974129 75.9636185 55.93084717 89.64529419 C52.86024571 99.90489105 49.92353409 110.17446224 47.26953125 120.55078125 C43.12197633 136.49911742 43.12197633 136.49911742 40.28515625 139.3359375 C36.25324014 139.00902538 33.67566468 137.42240423 30.28515625 135.3359375 C23.23487256 131.17627012 16.24339763 127.74384274 8.53515625 125.0234375 C7.85098633 124.78133545 7.16681641 124.5392334 6.46191406 124.28979492 C-2.77922639 121.148472 -11.18905576 120.00022386 -20.96484375 120.0859375 C-22.07585449 120.09270508 -23.18686523 120.09947266 -24.33154297 120.10644531 C-38.2823171 120.28244158 -52.58707984 122.21026743 -65.4453125 127.953125 C-68.83493943 129.38673066 -71.0802222 129.60188542 -74.71484375 129.3359375 C-74.71484375 129.9959375 -74.71484375 130.6559375 -74.71484375 131.3359375 C-76.33655614 131.72490911 -77.962393 132.09672048 -79.58984375 132.4609375 C-80.94722656 132.77417969 -80.94722656 132.77417969 -82.33203125 133.09375 C-83.51152344 133.21363281 -83.51152344 133.21363281 -84.71484375 133.3359375 C-85.37484375 132.6759375 -86.03484375 132.0159375 -86.71484375 131.3359375 C-86.35730543 123.93572571 -83.89229097 117.30418233 -81.50585938 110.34765625 C-79.62455469 104.68342574 -78.16696483 99.01710574 -76.9375 93.1796875 C-74.42213543 81.34497211 -70.90354267 69.80352098 -67.46484375 58.2109375 C-66.80804982 55.98062886 -66.15179636 53.75016098 -65.49609375 51.51953125 C-63.90855339 46.12315325 -62.31441568 40.72876066 -60.71484375 35.3359375 C-60.05484375 35.3359375 -59.39484375 35.3359375 -58.71484375 35.3359375 C-58.60527344 34.57410156 -58.49570313 33.81226563 -58.3828125 33.02734375 C-57.88481493 29.78428641 -57.31130584 26.56225517 -56.71484375 23.3359375 C-56.57820313 22.45808594 -56.4415625 21.58023438 -56.30078125 20.67578125 C-55.74360345 18.18511331 -55.15838551 16.44468503 -53.71484375 14.3359375 C-50.32132529 12.20366512 -46.55010276 11.40690024 -42.71484375 10.3359375 C-41.00698298 9.76140999 -39.30281589 9.1758386 -37.6015625 8.58203125 C-35.74352663 7.93739321 -33.88545336 7.29286296 -32.02734375 6.6484375 C-31.1367627 6.33825684 -30.24618164 6.02807617 -29.32861328 5.70849609 C-25.36734684 4.37432211 -21.61002652 3.20786107 -17.4453125 2.75390625 C-13.81737745 2.49629179 -13.81737745 2.49629179 -10.96386719 1.33081055 C-7.25648475 0.19558486 -3.83862315 0.01242573 0 0 Z " fill="#DC6723" transform="translate(206.71484375,101.6640625)"/>
<path d="M0 0 C-1.35319581 6.35108412 -2.94145629 12.57702015 -4.75 18.8125 C-5.01095459 19.7197583 -5.27190918 20.6270166 -5.54077148 21.56176758 C-7.57911817 28.61993238 -9.68993794 35.65538864 -11.81933594 42.68652344 C-13.45921642 48.12492448 -15.0056728 53.58250042 -16.5 59.0625 C-19.61061119 70.42326362 -23.23469626 81.61718777 -26.90234375 92.80859375 C-27.22025879 93.78731445 -27.53817383 94.76603516 -27.86572266 95.77441406 C-28.48022269 97.66513465 -29.10064853 99.55394341 -29.72802734 101.44042969 C-31.42023199 106.65927008 -32.50986721 111.53215499 -33 117 C-34.32 117.33 -35.64 117.66 -37 118 C-37 116.68 -37 115.36 -37 114 C-37.66 113.75894531 -38.32 113.51789063 -39 113.26953125 C-42.06240773 111.97359048 -44.91029022 110.47095511 -47.82446289 108.87719727 C-55.67340148 104.58498789 -63.45791877 100.74448803 -72 98 C-73.10472656 97.63519531 -74.20945312 97.27039063 -75.34765625 96.89453125 C-82.17746957 95.25320812 -89.39002384 95.60724015 -96.375 95.625 C-97.5169986 95.62531723 -97.5169986 95.62531723 -98.68206787 95.62564087 C-110.24656246 95.65777377 -120.93767243 96.48876826 -132 100 C-133.44734445 100.42642617 -134.89527744 100.85085914 -136.34375 101.2734375 C-140.25779275 102.43746508 -144.13003016 103.69689151 -148 105 C-148.90363281 105.30164063 -149.80726563 105.60328125 -150.73828125 105.9140625 C-154.59294304 107.04955231 -154.59294304 107.04955231 -157 110 C-158.32 109.67 -159.64 109.34 -161 109 C-159.67319679 100.52674954 -157.54002596 92.42569726 -155.11328125 84.20703125 C-154.72885876 82.89033444 -154.34493362 81.57349234 -153.96147156 80.2565155 C-152.95473682 76.80381933 -151.94141083 73.35309329 -150.92657471 69.902771 C-149.91911457 66.47344118 -148.91779182 63.04232174 -147.91601562 59.61132812 C-146.35439215 54.26574608 -144.78988442 48.92101834 -143.22241211 43.57714844 C-143.03490859 42.93789555 -142.84740507 42.29864265 -142.65421963 41.64001846 C-142.46925458 41.00942394 -142.28428953 40.37882942 -142.09371948 39.72912598 C-140.42213731 34.02972991 -138.75257074 28.32975142 -137.0859375 22.62890625 C-136.81046585 21.68948685 -136.5349942 20.75006744 -136.25117493 19.78218079 C-134.33288654 13.21676912 -132.45415711 6.63834438 -130.7766571 0.00663757 C-129.4619723 -4.72176383 -129.4619723 -4.72176383 -127.20019531 -6.08398438 C-123.31572994 -7.70121852 -119.38457867 -9.16816376 -115.4375 -10.625 C-114.57447266 -10.94984375 -113.71144531 -11.2746875 -112.82226562 -11.609375 C-111.99275391 -11.91617188 -111.16324219 -12.22296875 -110.30859375 -12.5390625 C-109.55376709 -12.81959473 -108.79894043 -13.10012695 -108.02124023 -13.38916016 C-106 -14 -106 -14 -103 -14 C-103 -14.66 -103 -15.32 -103 -16 C-66.87384598 -26.01613422 -30.52545035 -23.82474174 0 0 Z " fill="#5F95BD" transform="translate(243,258)"/>
<path d="M0 0 C4.88374534 0.50796757 7.87249711 1.91499807 11.9375 4.625 C23.98870481 12.33693358 36.01399118 17.06388528 50 20 C50.76900635 20.17345947 51.5380127 20.34691895 52.33032227 20.52563477 C55.30206138 21.05367218 58.15940768 21.21239337 61.17578125 21.31640625 C62.33271484 21.35830078 63.48964844 21.40019531 64.68164062 21.44335938 C65.87982422 21.48267578 67.07800781 21.52199219 68.3125 21.5625 C69.53001953 21.60568359 70.74753906 21.64886719 72.00195312 21.69335938 C75.0011947 21.79921496 78.00051591 21.90129726 81 22 C81 22.33 81 22.66 81 23 C54.41541312 26.36057983 33.10592421 19.76617286 9.97607422 7.06567383 C8.00328789 6.00177312 6.00977582 4.99196512 4 4 C12.70191971 13.50452396 26.08116512 17.9725162 38 22 C38.96292969 22.33 39.92585938 22.66 40.91796875 23 C67.27070624 31.49824713 96.05326956 24.45809468 121.7109375 16.91796875 C125 16 125 16 127 16 C125.34403537 25.44800721 122.62159246 34.54477329 119.9140625 43.73046875 C119.41041636 45.45131816 118.90719962 47.17229329 118.40438843 48.89338684 C117.0845061 53.40789494 115.75987969 57.92099566 114.43389893 62.43371582 C112.3183872 69.63568203 110.20934559 76.83954203 108.10181808 84.04384804 C107.37253932 86.53384696 106.64074645 89.02309586 105.90859985 91.51225281 C104.80007918 95.28716511 103.70290317 99.06515528 102.61798859 102.84692001 C102.20276903 104.29355017 101.78520616 105.7395096 101.36540985 107.18481827 C100.76746369 109.25362692 100.18323697 111.32581523 99.60302734 113.3996582 C99.26846527 114.57945755 98.9339032 115.7592569 98.58920288 116.97480774 C98.03113177 119.84015763 97.98341496 121.31116953 99 124 C94.75259955 125.44525822 90.50163119 126.87974027 86.25 128.3125 C85.06277344 128.71662109 83.87554687 129.12074219 82.65234375 129.53710938 C51.65803926 139.9532281 19.10731221 142.83136779 -11 128 C-15.05037978 125.86166391 -19.0498448 123.63740882 -23.01171875 121.33935547 C-23.73359375 120.92186035 -24.45546875 120.50436523 -25.19921875 120.07421875 C-25.83690186 119.69869873 -26.47458496 119.32317871 -27.1315918 118.9362793 C-29.73892267 117.62971796 -32.08493401 117 -35 117 C-33.69281106 109.79329966 -31.90581289 102.82803707 -29.8125 95.8125 C-29.50787842 94.77875244 -29.20325684 93.74500488 -28.8894043 92.67993164 C-26.45294084 84.44069832 -23.93503421 76.22674077 -21.4152832 68.01269531 C-19.49653504 61.72488008 -17.74267362 55.42163405 -16.08984375 49.05859375 C-14.1302739 41.63899318 -11.90680721 34.29018747 -9.73828125 26.9296875 C-8.64926297 23.23286683 -7.58115021 19.53172077 -6.54296875 15.8203125 C-6.3224585 15.04155762 -6.10194824 14.26280273 -5.87475586 13.46044922 C-5.47166818 12.03428436 -5.07487099 10.60631941 -4.68579102 9.17626953 C-3.65403263 5.56026367 -2.49290162 2.83675012 0 0 Z " fill="#82AE49" transform="translate(295,136)"/>
<path d="M0 0 C0.73279678 -0.0066568 1.46559357 -0.0133136 2.22059631 -0.02017212 C3.76951611 -0.03025919 5.31847903 -0.03499036 6.86743164 -0.03466797 C9.18518324 -0.03899258 11.50095016 -0.07521394 13.81835938 -0.11328125 C28.51996912 -0.22488706 40.85085666 3.23171199 54.28515625 9.3359375 C54.28515625 9.9959375 54.28515625 10.6559375 54.28515625 11.3359375 C55.12304688 11.573125 55.9609375 11.8103125 56.82421875 12.0546875 C60.82511924 13.53583351 64.10476958 15.51268901 67.66015625 17.8359375 C68.30082031 18.23941406 68.94148437 18.64289063 69.6015625 19.05859375 C71.20206269 20.0926056 72.7492522 21.20820521 74.28515625 22.3359375 C74.28515625 22.9959375 74.28515625 23.6559375 74.28515625 24.3359375 C72.65889221 25.71826193 70.99265605 27.05531265 69.28515625 28.3359375 C69.28515625 27.6759375 69.28515625 27.0159375 69.28515625 26.3359375 C68.57617188 26.07425781 67.8671875 25.81257813 67.13671875 25.54296875 C64.1190618 24.26563177 61.45941485 22.72487366 58.66015625 21.0234375 C53.03583124 17.68791969 47.29431351 14.90284129 41.28515625 12.3359375 C41.28515625 11.6759375 41.28515625 11.0159375 41.28515625 10.3359375 C40.73214844 10.52929688 40.17914063 10.72265625 39.609375 10.921875 C36.68976433 11.44200732 34.91703543 10.84784177 32.09765625 9.9609375 C27.09355029 8.51896486 22.48175118 7.60242955 17.28515625 7.3359375 C16.19332031 7.27148438 15.10148437 7.20703125 13.9765625 7.140625 C-3.99846107 6.58867955 -21.74415169 10.67295091 -38.71484375 16.3359375 C-39.75769531 16.65304688 -40.80054688 16.97015625 -41.875 17.296875 C-42.77089844 17.59851563 -43.66679687 17.90015625 -44.58984375 18.2109375 C-45.69972656 18.57832031 -45.69972656 18.57832031 -46.83203125 18.953125 C-52.14174714 22.85279186 -53.37205874 32.74561177 -55.04296875 38.76953125 C-55.35506287 39.87909683 -55.66715698 40.98866241 -55.9887085 42.1318512 C-56.98523713 45.67780691 -57.97532318 49.22552044 -58.96484375 52.7734375 C-60.2598223 57.39766821 -61.55732994 62.02118681 -62.85546875 66.64453125 C-63.17551376 67.78544724 -63.49555878 68.92636322 -63.82530212 70.10185242 C-66.00678452 77.8630246 -68.22703792 85.61211564 -70.484375 93.3515625 C-70.75948914 94.29499008 -71.03460327 95.23841766 -71.3180542 96.21043396 C-73.4666882 103.54770441 -75.67018325 110.86820093 -77.93438721 118.17066956 C-78.89486915 121.31965712 -79.71484375 124.02350985 -79.71484375 127.3359375 C-82.68484375 127.8309375 -82.68484375 127.8309375 -85.71484375 128.3359375 C-86.04484375 129.3259375 -86.37484375 130.3159375 -86.71484375 131.3359375 C-86.06547529 123.90716235 -83.91622306 117.37394515 -81.50585938 110.34765625 C-79.62455469 104.68342574 -78.16696483 99.01710574 -76.9375 93.1796875 C-74.42213543 81.34497211 -70.90354267 69.80352098 -67.46484375 58.2109375 C-66.80804982 55.98062886 -66.15179636 53.75016098 -65.49609375 51.51953125 C-63.90855339 46.12315325 -62.31441568 40.72876066 -60.71484375 35.3359375 C-60.05484375 35.3359375 -59.39484375 35.3359375 -58.71484375 35.3359375 C-58.60527344 34.57410156 -58.49570313 33.81226563 -58.3828125 33.02734375 C-57.88481493 29.78428641 -57.31130584 26.56225517 -56.71484375 23.3359375 C-56.57820313 22.45808594 -56.4415625 21.58023438 -56.30078125 20.67578125 C-55.74360345 18.18511331 -55.15838551 16.44468503 -53.71484375 14.3359375 C-50.32132529 12.20366512 -46.55010276 11.40690024 -42.71484375 10.3359375 C-41.00698298 9.76140999 -39.30281589 9.1758386 -37.6015625 8.58203125 C-35.74352663 7.93739321 -33.88545336 7.29286296 -32.02734375 6.6484375 C-31.1367627 6.33825684 -30.24618164 6.02807617 -29.32861328 5.70849609 C-25.36734684 4.37432211 -21.61002652 3.20786107 -17.4453125 2.75390625 C-13.81737745 2.49629179 -13.81737745 2.49629179 -10.96386719 1.33081055 C-7.25648475 0.19558486 -3.83862315 0.01242573 0 0 Z " fill="#B72D29" transform="translate(206.71484375,101.6640625)"/>
<path d="M0 0 C2.375 1.3125 2.375 1.3125 3.13256836 2.97363281 C3.47849007 6.31092383 2.5920627 8.83507527 1.62890625 12.046875 C1.42681046 12.73254547 1.22471466 13.41821594 1.01649475 14.12466431 C0.56972356 15.6365446 0.11838386 17.1470803 -0.33685303 18.65643311 C-1.33790865 21.97568733 -2.31752567 25.30115263 -3.29833984 28.62643433 C-3.84088968 30.46555646 -4.38454712 32.30435213 -4.92919922 34.14285278 C-7.24986907 41.99043717 -9.50647749 49.85549946 -11.74609375 57.7265625 C-12.09774094 58.96212891 -12.44938812 60.19769531 -12.81169128 61.47070312 C-14.22100814 66.42552251 -15.62909706 71.38068878 -17.03561401 76.33630371 C-18.64888812 82.01706593 -20.27042426 87.69500225 -21.91699219 93.36621094 C-22.9832727 97.04055 -24.00327802 100.72007224 -24.96582031 104.42285156 C-25.36497081 105.87832751 -25.76436219 107.33373744 -26.1640625 108.7890625 C-26.47811035 109.99900879 -26.7921582 111.20895508 -27.11572266 112.45556641 C-29.20064525 116.40214748 -31.47126614 116.93949207 -35.625 118.3125 C-36.7857605 118.76774048 -36.7857605 118.76774048 -37.9699707 119.23217773 C-73.76896787 132.37485779 -110.34970755 135.61358378 -145.84960938 119.28955078 C-153.03166056 115.7535409 -159.9242718 111.68848576 -166.625 107.3125 C-166.295 105.9925 -165.965 104.6725 -165.625 103.3125 C-165.295 103.9725 -164.965 104.6325 -164.625 105.3125 C-163.88765625 105.45429688 -163.1503125 105.59609375 -162.390625 105.7421875 C-159.15566963 106.40928282 -157.15631232 107.66540672 -154.375 109.4375 C-123.55560189 127.85350844 -89.63049812 128.45298569 -55.46484375 120.07421875 C-53.87056356 119.66064577 -52.27798783 119.24042571 -50.6875 118.8125 C-49.63296631 118.52886597 -49.63296631 118.52886597 -48.55712891 118.23950195 C-46.55048788 117.66067251 -44.59096183 117.01695749 -42.625 116.3125 C-41.88491699 116.04824219 -41.14483398 115.78398437 -40.38232422 115.51171875 C-39.29395264 115.05732422 -39.29395264 115.05732422 -38.18359375 114.59375 C-37.52544678 114.32626953 -36.8672998 114.05878906 -36.18920898 113.78320312 C-33.6725423 111.41697867 -33.97286704 108.66045019 -33.625 105.3125 C-33.0504077 103.03216436 -32.43299762 100.76226958 -31.77734375 98.50390625 C-31.41962891 97.26318359 -31.06191406 96.02246094 -30.69335938 94.74414062 C-30.31650862 93.45439717 -29.93955423 92.16468399 -29.5625 90.875 C-29.18121014 89.55806727 -28.8003469 88.24101094 -28.41992188 86.92382812 C-27.49246338 83.71881333 -26.56069947 80.51511665 -25.625 77.3125 C-24.965 77.3125 -24.305 77.3125 -23.625 77.3125 C-23.51800781 76.38050781 -23.41101563 75.44851563 -23.30078125 74.48828125 C-22.563826 69.38305238 -21.17332561 64.46856835 -19.8125 59.5 C-19.37248657 57.87795654 -19.37248657 57.87795654 -18.92358398 56.22314453 C-13.99797495 38.20478236 -8.78932658 20.26353118 -3.625 2.3125 C-5.275 2.3125 -6.925 2.3125 -8.625 2.3125 C-3.70192308 -0.96955128 -3.70192308 -0.96955128 0 0 Z " fill="#AA8F67" transform="translate(388.625,279.6875)"/>
<path d="M0 0 C2.85078017 1.40318146 5.64137237 2.88845567 8.421875 4.42578125 C27.61715836 14.88851648 44.85936559 20.48660735 67 20 C61.72 19.67 56.44 19.34 51 19 C51 18.67 51 18.34 51 18 C51.71317383 17.9906543 52.42634766 17.98130859 53.16113281 17.97167969 C76.66006378 17.58694599 100.16603444 15.00317222 121.8984375 5.3125 C125 4 125 4 127.8125 4.0625 C130 5 130 5 131.22729492 6.66894531 C132.31868438 9.9613897 131.53098094 11.92883111 130.55078125 15.234375 C130.19693359 16.44867188 129.84308594 17.66296875 129.47851562 18.9140625 C129.08991684 20.19273055 128.70124444 21.47137623 128.3125 22.75 C127.76432617 24.62558594 127.76432617 24.62558594 127.20507812 26.5390625 C125.35638708 32.79617064 123.33060026 38.90898338 121 45 C120.60919203 46.98956785 120.25149128 48.98806977 120 51 C119.34 51 118.68 51 118 51 C118 51.66 118 52.32 118 53 C117.01 53.66 116.02 54.32 115 55 C114.07277344 57.51248486 113.3152132 59.92245817 112.625 62.5 C112.41439941 63.25031494 112.20379883 64.00062988 111.98681641 64.77368164 C111.3139336 67.17964918 110.65664955 69.58955696 110 72 C109.55834558 73.59274053 109.11564835 75.1851923 108.671875 76.77734375 C108.02676788 79.09327351 107.38273466 81.40945066 106.74365234 83.72705078 C105.42047387 88.52370496 104.04394074 93.29930852 102.578125 98.0546875 C100.97972192 103.43309786 100.99576245 108.09524517 101.16015625 113.7109375 C100.99279463 117.1479736 100.23169488 119.8024235 99 123 C98.34 123 97.68 123 97 123 C97 122.34 97 121.68 97 121 C96.34 121 95.68 121 95 121 C95 120.01 95 119.02 95 118 C94.34 117.67 93.68 117.34 93 117 C102.75302889 82.25914252 112.73855962 47.59413781 123 13 C122.1529248 13.26482178 121.30584961 13.52964355 120.43310547 13.80249023 C112.31969597 16.3221719 104.21876013 18.59156774 95.94824219 20.52978516 C94.16811917 20.95942387 92.39957058 21.43631196 90.6328125 21.91796875 C82.00872752 24.03913515 73.66776731 24.28243511 64.8125 24.3125 C63.0485791 24.32071777 63.0485791 24.32071777 61.24902344 24.32910156 C50.94768817 24.24525685 41.41106266 23.38101193 32 19 C29.81447182 18.26494431 27.62669487 17.53656223 25.4375 16.8125 C15.58276373 13.32754519 6.21160047 8.735348 -1 1 C-0.67 0.67 -0.34 0.34 0 0 Z " fill="#396936" transform="translate(299,139)"/>
<path d="M0 0 C-4.24994201 1.61086512 -8.50549824 3.1864609 -12.796875 4.68359375 C-13.61027344 4.97169922 -14.42367187 5.25980469 -15.26171875 5.55664062 C-16.93325009 6.14836797 -18.60781491 6.73158909 -20.28515625 7.30664062 C-21.09339844 7.59603516 -21.90164062 7.88542969 -22.734375 8.18359375 C-23.45850586 8.43681396 -24.18263672 8.69003418 -24.92871094 8.95092773 C-28.38310969 10.70052125 -30.53513509 12.89914769 -32.0456543 16.47622681 C-32.4310437 17.87172256 -32.4310437 17.87172256 -32.82421875 19.29541016 C-33.12593491 20.36217987 -33.42765106 21.42894958 -33.73851013 22.52804565 C-34.05167679 23.68668121 -34.36484344 24.84531677 -34.6875 26.0390625 C-35.02713272 27.25304718 -35.36676544 28.46703186 -35.71669006 29.71780396 C-36.63379281 33.00423993 -37.5392526 36.29346856 -38.43977737 39.5844574 C-39.37378022 42.98644887 -40.32287242 46.38421701 -41.27124023 49.78222656 C-42.60730538 54.57324467 -43.93948067 59.3653052 -45.26625347 64.15890503 C-48.2119071 74.79809233 -51.2343555 85.41477582 -54.28051758 96.02557373 C-55.29098175 99.54603027 -56.29811317 103.06743642 -57.30528259 106.58883667 C-58.20271407 109.72612268 -59.1012879 112.86308062 -60 116 C-58.80793945 115.59370361 -57.61587891 115.18740723 -56.38769531 114.76879883 C-40.20782209 109.28994446 -40.20782209 109.28994446 -32.75 107.6875 C-31.73099609 107.45450195 -31.73099609 107.45450195 -30.69140625 107.21679688 C-1.92831569 100.73536544 24.75420712 104.93789652 50 120 C51.06734375 120.73992187 52.1346875 121.47984375 53.234375 122.2421875 C55.87581489 124.26820631 55.87581489 124.26820631 59 124 C61 126 61 126 61 130 C59.68 130.33 58.36 130.66 57 131 C57 129.68 57 128.36 57 127 C56.34 126.75894531 55.68 126.51789063 55 126.26953125 C51.93759227 124.97359048 49.08970978 123.47095511 46.17553711 121.87719727 C38.32659852 117.58498789 30.54208123 113.74448803 22 111 C20.89527344 110.63519531 19.79054688 110.27039063 18.65234375 109.89453125 C11.82253043 108.25320812 4.60997616 108.60724015 -2.375 108.625 C-3.5169986 108.62531723 -3.5169986 108.62531723 -4.68206787 108.62564087 C-16.24656246 108.65777377 -26.93767243 109.48876826 -38 113 C-39.44734445 113.42642617 -40.89527744 113.85085914 -42.34375 114.2734375 C-46.25779275 115.43746508 -50.13003016 116.69689151 -54 118 C-54.90363281 118.30164063 -55.80726562 118.60328125 -56.73828125 118.9140625 C-60.59294304 120.04955231 -60.59294304 120.04955231 -63 123 C-64.32 122.67 -65.64 122.34 -67 122 C-65.67319679 113.52674954 -63.54002596 105.42569726 -61.11328125 97.20703125 C-60.72885876 95.89033444 -60.34493362 94.57349234 -59.96147156 93.2565155 C-58.95473682 89.80381933 -57.94141083 86.35309329 -56.92657471 82.902771 C-55.91911457 79.47344119 -54.91778676 76.04232321 -53.91601562 72.61132812 C-52.35439334 67.26548644 -50.78937834 61.92065131 -49.22143555 56.57666016 C-46.89629701 48.65146225 -44.58328138 40.72274999 -42.27314758 32.79316711 C-39.86359319 24.5244065 -37.43567741 16.26109943 -35 8 C-33.8553125 7.89558594 -32.710625 7.79117188 -31.53125 7.68359375 C-26.91501528 7.10554851 -22.83245303 5.70788517 -18.5 4.0625 C-3.27382813 -1.63691406 -3.27382813 -1.63691406 0 0 Z " fill="#5174A9" transform="translate(149,245)"/>
<path d="M0 0 C0.99 0.33 1.98 0.66 3 1 C2.0409375 1.2784375 2.0409375 1.2784375 1.0625 1.5625 C-1.350056 2.88462457 -1.350056 2.88462457 -1.5625 6.0625 C-1.706875 7.361875 -1.85125 8.66125 -2 10 C-4.35426009 18.35426009 -4.35426009 18.35426009 -6 20 C-6.29430772 21.33630117 -6.53661833 22.68419222 -6.75390625 24.03515625 C-6.88603516 24.84404297 -7.01816406 25.65292969 -7.15429688 26.48632812 C-7.28900391 27.33646484 -7.42371094 28.18660156 -7.5625 29.0625 C-7.70107422 29.91650391 -7.83964844 30.77050781 -7.98242188 31.65039062 C-8.32523005 33.76634451 -8.66307616 35.88310118 -9 38 C-9.66 38 -10.32 38 -11 38 C-11.11029541 38.60295898 -11.22059082 39.20591797 -11.33422852 39.82714844 C-12.52697473 46.0910288 -14.11411392 52.14353819 -15.9375 58.25 C-17.7266359 64.34683291 -19.38004063 70.39332493 -20.625 76.625 C-21.65770271 81.76421467 -23.12835298 86.49377522 -25.015625 91.37890625 C-26.569855 95.51735199 -27.7836854 99.7521134 -29 104 C-29.66 104 -30.32 104 -31 104 C-31.33 107.3 -31.66 110.6 -32 114 C-31.15566406 114.07992187 -30.31132812 114.15984375 -29.44140625 114.2421875 C-25.39100256 115.13410386 -22.4047646 116.96470915 -18.9375 119.125 C-12.56922829 122.89977223 -6.15446559 125.62670018 0.875 127.9375 C1.729729 128.21932129 2.58445801 128.50114258 3.46508789 128.79150391 C33.31400832 138.22112132 62.11865609 132.94074679 90.91967773 122.69262695 C92.93056652 122.02311733 94.93766692 121.48510078 97 121 C97 121.66 97 122.32 97 123 C97.66 123.33 98.32 123.66 99 124 C86.61339351 129.16404368 74.13543494 132.33780717 61 135 C59.86175781 135.24878906 58.72351563 135.49757813 57.55078125 135.75390625 C29.0989087 141.1859727 1.89398426 134.80198115 -23 121 C-24.0621875 120.27554688 -25.124375 119.55109375 -26.21875 118.8046875 C-29.18647924 116.87899802 -30.54703962 116.59376937 -34 117 C-34.50312228 110.13386069 -32.65320598 104.07448879 -30.8125 97.5 C-30.49152344 96.33017578 -30.17054688 95.16035156 -29.83984375 93.95507812 C-27.8818542 86.90239978 -25.71478751 79.98902903 -23.30859375 73.078125 C-21.09268713 66.4286753 -19.44644532 59.59863219 -17.65844727 52.82519531 C-15.70640037 45.48266271 -13.57249514 38.23739006 -11.20605469 31.01879883 C-9.80900374 26.71122509 -8.5486984 22.39230728 -7.3984375 18.01171875 C-7.13297119 17.00141602 -6.86750488 15.99111328 -6.59399414 14.95019531 C-6.08280798 12.97954952 -5.58157393 11.00628846 -5.09155273 9.03027344 C-4.86153564 8.14243164 -4.63151855 7.25458984 -4.39453125 6.33984375 C-4.09832886 5.15442993 -4.09832886 5.15442993 -3.79614258 3.94506836 C-3 2 -3 2 0 0 Z " fill="#F0BD16" transform="translate(257,269)"/>
<path d="M0 0 C0.66 0.33 1.32 0.66 2 1 C5.68072189 12.69032673 -2.98532586 30.97362088 -6.25 42.375 C-6.83956707 44.44571739 -7.42883953 46.51651868 -8.01782227 48.58740234 C-17.12180492 80.55952511 -17.12180492 80.55952511 -21.75 95.76171875 C-22.03367432 96.69612793 -22.31734863 97.63053711 -22.60961914 98.59326172 C-23.14369287 100.34746792 -23.6816563 102.10049685 -24.22436523 103.85205078 C-25.18370212 106.99524129 -26 109.69354585 -26 113 C-28.97 113.495 -28.97 113.495 -32 114 C-32.33 114.99 -32.66 115.98 -33 117 C-32.35063154 109.57122485 -30.20137931 103.03800765 -27.79101562 96.01171875 C-25.90971094 90.34748824 -24.45212108 84.68116824 -23.22265625 78.84375 C-20.70729168 67.00903461 -17.18869892 55.46758348 -13.75 43.875 C-13.09320607 41.64469136 -12.43695261 39.41422348 -11.78125 37.18359375 C-10.19370964 31.78721575 -8.59957193 26.39282316 -7 21 C-6.34 21 -5.68 21 -5 21 C-4.89042969 20.23816406 -4.78085938 19.47632813 -4.66796875 18.69140625 C-3.66551378 12.16322389 -2.27363487 6.20082237 0 0 Z " fill="#BD402D" transform="translate(153,116)"/>
<path d="M0 0 C1.9375 0.8125 1.9375 0.8125 4 2 C5.25619078 5.76857235 4.55363646 7.34701869 3.453125 11.13671875 C2.9271875 12.96299805 2.9271875 12.96299805 2.390625 14.82617188 C2.20306641 15.46095459 2.01550781 16.0957373 1.82226562 16.74975586 C1.25793916 18.66061728 0.70699438 20.57541418 0.15625 22.49023438 C-1.66935743 28.77072079 -3.65500894 34.89728626 -6 41 C-6.39080797 42.98956785 -6.74850872 44.98806977 -7 47 C-7.66 47 -8.32 47 -9 47 C-9 47.66 -9 48.32 -9 49 C-9.99 49.66 -10.98 50.32 -12 51 C-12.92722656 53.51248486 -13.6847868 55.92245817 -14.375 58.5 C-14.58560059 59.25031494 -14.79620117 60.00062988 -15.01318359 60.77368164 C-15.6860664 63.17964918 -16.34335045 65.58955696 -17 68 C-17.44165442 69.59274053 -17.88435165 71.1851923 -18.328125 72.77734375 C-18.97323212 75.09327351 -19.61726534 77.40945066 -20.25634766 79.72705078 C-21.57952613 84.52370496 -22.95605926 89.29930852 -24.421875 94.0546875 C-26.02027808 99.43309786 -26.00423755 104.09524517 -25.83984375 109.7109375 C-26.00720537 113.1479736 -26.76830512 115.8024235 -28 119 C-28.66 119 -29.32 119 -30 119 C-30 118.34 -30 117.68 -30 117 C-30.66 117 -31.32 117 -32 117 C-32 116.01 -32 115.02 -32 114 C-32.66 113.67 -33.32 113.34 -34 113 C-26.79627982 87.39725777 -19.57241341 61.79989152 -12.1585083 36.25708008 C-11.55570273 34.17890938 -10.95441013 32.10029919 -10.35467529 30.02124023 C-9.51702173 27.11959284 -8.67346172 24.21972949 -7.828125 21.3203125 C-7.58496552 20.47465729 -7.34180603 19.62900208 -7.09127808 18.75772095 C-3.3063604 5.85846541 -3.3063604 5.85846541 0.1875 3.5625 C0.785625 3.376875 1.38375 3.19125 2 3 C1.34 2.67 0.68 2.34 0 2 C0 1.34 0 0.68 0 0 Z " fill="#4B7B47" transform="translate(426,143)"/>
<path d="M0 0 C0.66 0.66 1.32 1.32 2 2 C3.13695312 2.21269531 3.13695312 2.21269531 4.296875 2.4296875 C7.49006994 3.10339626 9.5011714 4.37360349 12.25 6.125 C43.00284399 24.50123929 77.1055105 25.27829977 111.1953125 16.7265625 C116.8558026 15.23492414 122.41893566 13.76468521 127.75390625 11.328125 C131.63678662 9.73946155 133.9615953 10.09341935 138 11 C135.32331465 14.370279 132.14303274 15.16359149 128.125 16.4375 C127.45734619 16.65067871 126.78969238 16.86385742 126.10180664 17.08349609 C124.72852241 17.52025031 123.35391548 17.95286701 121.97802734 18.38134766 C120.18533339 18.94203471 118.39889349 19.52262185 116.61328125 20.10546875 C84.0011677 30.57504026 49.70449965 30.22000348 18.671875 14.94140625 C15.04692869 13.07184559 11.5210246 11.0579108 8 9 C7.10925781 8.51273437 6.21851563 8.02546875 5.30078125 7.5234375 C3.0625 6.25 3.0625 6.25 0 4 C0 2.68 0 1.36 0 0 Z " fill="#BB7B2D" transform="translate(222,383)"/>
<path d="M0 0 C1.29036288 0.64661462 2.55709362 1.34183366 3.80078125 2.07421875 C4.52265625 2.49171387 5.24453125 2.90920898 5.98828125 3.33935547 C6.75527344 3.78424316 7.52226562 4.22913086 8.3125 4.6875 C38.0287458 21.46260741 68.30107547 23.86706533 101.04614258 14.84472656 C108.68558548 12.68456638 116.25465766 10.36175362 123.72265625 7.6640625 C126 7 126 7 130 7 C130 7.66 130 8.32 130 9 C130.99 9.495 130.99 9.495 132 10 C98.34071398 24.44668471 60.18891745 31.09576293 25 18 C14.30995849 13.67614903 1.95881932 8.54931237 -6 0 C-3.45139299 -1.2743035 -2.66090616 -0.8717981 0 0 Z " fill="#2A522E" transform="translate(266,253)"/>
<path d="M0 0 C3.41312477 1.02754407 6.44215963 2.70744094 9.5546875 4.42578125 C19.79100275 9.99107224 29.66730188 15.09450248 41 18 C41.65742188 18.17821289 42.31484375 18.35642578 42.9921875 18.54003906 C51.73134204 20.62705747 60.69063415 20.45679072 69.625 20.625 C71.31382052 20.66325702 73.00262314 20.702313 74.69140625 20.7421875 C78.79412246 20.83733889 82.89692957 20.92167039 87 21 C87 21.33 87 21.66 87 22 C85.35 22.33 83.7 22.66 82 23 C82 23.66 82 24.32 82 25 C76.06 25.33 70.12 25.66 64 26 C64 26.33 64 26.66 64 27 C41.00248741 27.4120495 17.16591026 19.15808353 -1 5 C-1.12117188 5.68707031 -1.24234375 6.37414062 -1.3671875 7.08203125 C-1.53476562 7.98308594 -1.70234375 8.88414062 -1.875 9.8125 C-2.03742188 10.70582031 -2.19984375 11.59914063 -2.3671875 12.51953125 C-3 15 -3 15 -5 18 C-4.85764543 16.27054347 -4.71095618 14.54144346 -4.5625 12.8125 C-4.48128906 11.84957031 -4.40007812 10.88664062 -4.31640625 9.89453125 C-3.73016864 4.53154279 -3.73016864 4.53154279 -3 2 C-2.01 1.34 -1.02 0.68 0 0 Z " fill="#F0CC6A" transform="translate(259,270)"/>
<path d="M0 0 C1.50569295 -0.01638893 3.01131385 -0.04344681 4.51660156 -0.08203125 C19.22185033 -0.45554944 31.62930364 2.72475662 44.8503418 9.28759766 C45.5508667 9.62750732 46.2513916 9.96741699 46.97314453 10.31762695 C59.56532008 16.5098093 59.56532008 16.5098093 62.9753418 19.35009766 C62.9753418 20.34009766 62.9753418 21.33009766 62.9753418 22.35009766 C58.89011955 20.88106824 55.18982244 18.89045361 51.38891602 16.82080078 C43.47013548 12.51708176 35.76322116 8.57732879 26.9753418 6.35009766 C26.36650146 6.17712158 25.75766113 6.00414551 25.13037109 5.82592773 C-1.14874894 -0.99278209 -28.17688605 6.46886005 -52.6965332 15.5715332 C-55.0246582 16.35009766 -55.0246582 16.35009766 -57.0246582 16.35009766 C-56.9465332 14.53369141 -56.9465332 14.53369141 -56.0246582 12.35009766 C-53.73618622 11.12770347 -51.7044795 10.25396948 -49.2746582 9.41259766 C-48.57816162 9.16098877 -47.88166504 8.90937988 -47.1640625 8.65014648 C-37.99790881 5.46805166 -28.50398641 3.36862359 -19.0246582 1.35009766 C-18.25831055 1.17051514 -17.49196289 0.99093262 -16.70239258 0.8059082 C-11.19898746 -0.13089498 -5.57108328 0.04413448 0 0 Z " fill="#144B8A" transform="translate(143.024658203125,352.64990234375)"/>
<path d="M0 0 C0.98597168 -0.00547852 1.97194336 -0.01095703 2.98779297 -0.01660156 C9.71954065 0.04889774 16.04573656 0.92518134 22.625 2.3125 C23.93621826 2.56882202 23.93621826 2.56882202 25.27392578 2.83032227 C37.35723339 5.30846687 49.99607255 12.71749038 59.625 20.3125 C59.625 20.9725 59.625 21.6325 59.625 22.3125 C56.07239328 21.33553315 53.16364008 20.09917471 50.125 18.0625 C35.61605631 8.64978797 18.50698757 3.91228756 1.375 4.0625 C0.26398926 4.06926758 -0.84702148 4.07603516 -1.99169922 4.08300781 C-15.94247335 4.25900408 -30.24723609 6.18682993 -43.10546875 11.9296875 C-46.49509568 13.36329316 -48.74037845 13.57844792 -52.375 13.3125 C-52.375 13.9725 -52.375 14.6325 -52.375 15.3125 C-55.675 15.9725 -58.975 16.6325 -62.375 17.3125 C-62.705 16.6525 -63.035 15.9925 -63.375 15.3125 C-44.21513555 5.10038951 -21.56604737 0.08654379 0 0 Z " fill="#DA3426" transform="translate(184.375,217.6875)"/>
<path d="M0 0 C2.64143989 2.02601881 2.64143989 2.02601881 5.765625 1.7578125 C7.765625 3.7578125 7.765625 3.7578125 7.765625 7.7578125 C6.445625 8.0878125 5.125625 8.4178125 3.765625 8.7578125 C3.765625 7.4378125 3.765625 6.1178125 3.765625 4.7578125 C2.775625 4.39623047 2.775625 4.39623047 1.765625 4.02734375 C-1.29678273 2.73140298 -4.14466522 1.22876761 -7.05883789 -0.36499023 C-14.90777648 -4.65719961 -22.69229377 -8.49769947 -31.234375 -11.2421875 C-32.33910156 -11.60699219 -33.44382812 -11.97179687 -34.58203125 -12.34765625 C-41.41184457 -13.98897938 -48.62439884 -13.63494735 -55.609375 -13.6171875 C-56.7513736 -13.61687027 -56.7513736 -13.61687027 -57.91644287 -13.61654663 C-69.4514628 -13.58449563 -80.21333978 -12.83197513 -91.234375 -9.2421875 C-91.9473877 -9.01241211 -92.66040039 -8.78263672 -93.39501953 -8.54589844 C-94.1270459 -8.3090332 -94.85907227 -8.07216797 -95.61328125 -7.828125 C-96.33692871 -7.59569092 -97.06057617 -7.36325684 -97.80615234 -7.1237793 C-99.77519041 -6.47780939 -101.73015639 -5.78937187 -103.68359375 -5.09765625 C-107.58891627 -4.15676997 -110.33057731 -4.42534665 -114.234375 -5.2421875 C-113.904375 -6.5621875 -113.574375 -7.8821875 -113.234375 -9.2421875 C-113.234375 -8.2521875 -113.234375 -7.2621875 -113.234375 -6.2421875 C-112.13222656 -6.62890625 -111.03007813 -7.015625 -109.89453125 -7.4140625 C-72.24178832 -20.41521507 -34.19710492 -23.70668868 0 0 Z " fill="#236F9F" transform="translate(202.234375,367.2421875)"/>
<path d="M0 0 C0.66 0.33 1.32 0.66 2 1 C2.20155702 6.65572908 1.6663103 11.08225743 -0.01171875 16.55078125 C-0.22023468 17.24317398 -0.42875061 17.93556671 -0.64358521 18.64894104 C-1.31517304 20.87321194 -2.00124793 23.0927149 -2.6875 25.3125 C-3.6169203 28.37221256 -4.53906194 31.43410084 -5.4609375 34.49609375 C-5.68624649 35.24086975 -5.91155548 35.98564575 -6.14369202 36.75299072 C-7.85153683 42.42451217 -9.3853382 48.12627081 -10.8125 53.875 C-12.57818312 60.91439746 -14.91579361 67.42473445 -18 74 C-19.65 73.34 -21.3 72.68 -23 72 C-22 70 -22 70 -20 67 C-19.2970063 64.9609555 -18.65376824 62.90106759 -18.04467773 60.83203125 C-17.76867233 59.90225967 -17.76867233 59.90225967 -17.48709106 58.95370483 C-16.88110842 56.9080253 -16.28235311 54.86030424 -15.68359375 52.8125 C-15.26332323 51.38894287 -14.84258602 49.96552344 -14.42140198 48.54223633 C-13.31421939 44.79643306 -12.21308128 41.0488798 -11.11328125 37.30090332 C-9.77605172 32.74789763 -8.43173177 28.19698169 -7.08852482 23.64573669 C-6.04358117 20.10457761 -4.99967447 16.56312332 -3.95884705 13.02075195 C-3.67142891 12.04339584 -3.67142891 12.04339584 -3.37820435 11.04629517 C-2.86113941 9.28772579 -2.34460517 7.5290004 -1.82810974 5.77026367 C-1.25024571 3.83714338 -0.63803455 1.91410366 0 0 Z " fill="#E68539" transform="translate(266,164)"/>
<path d="M0 0 C1.06553927 3.23359666 0.92494424 5.11200428 -0.1171875 8.33203125 C-0.39014648 9.19795898 -0.66310547 10.06388672 -0.94433594 10.95605469 C-1.25145508 11.89868164 -1.55857422 12.84130859 -1.875 13.8125 C-2.52556177 15.87563345 -3.17387501 17.93947684 -3.8203125 20.00390625 C-4.17125977 21.12039551 -4.52220703 22.23688477 -4.88378906 23.38720703 C-6.71371449 29.31004966 -8.44007498 35.26243675 -10.16217041 41.21737671 C-10.73661554 43.20371863 -11.31322667 45.18942163 -11.89013672 47.17504883 C-13.73278163 53.53714833 -15.5294325 59.90789547 -17.25830078 66.30175781 C-18.63274642 71.30188066 -20.10189 76.27450272 -21.5625 81.25 C-22.16813879 83.31765854 -22.77361189 85.38536561 -23.37890625 87.453125 C-23.65879395 88.40896484 -23.93868164 89.36480469 -24.22705078 90.34960938 C-25.16415004 93.56285937 -26.0858881 96.78014317 -27 100 C-27.99 100 -28.98 100 -30 100 C-28.68961844 92.74440541 -26.8675556 85.74601866 -24.75 78.6875 C-24.1192661 76.55614504 -23.4890672 74.4246317 -22.859375 72.29296875 C-22.54548828 71.23384277 -22.23160156 70.1747168 -21.90820312 69.08349609 C-20.57695989 64.56371061 -19.28675835 60.03261174 -18 55.5 C-15.26543484 45.89368096 -12.48011896 36.30263317 -9.66796875 26.71875 C-8.6072979 23.09949119 -7.56697423 19.47573826 -6.55078125 15.84375 C-6.32914307 15.06161133 -6.10750488 14.27947266 -5.87915039 13.47363281 C-5.47426637 12.0426341 -5.07578996 10.6097988 -4.68530273 9.17480469 C-3.65380921 5.55926039 -2.49252145 2.83631751 0 0 Z " fill="#7F9E42" transform="translate(295,136)"/>
<path d="M0 0 C0.99 0.33 1.98 0.66 3 1 C2.0409375 1.2784375 2.0409375 1.2784375 1.0625 1.5625 C-1.350056 2.88462457 -1.350056 2.88462457 -1.5625 6.0625 C-1.706875 7.361875 -1.85125 8.66125 -2 10 C-4.35426009 18.35426009 -4.35426009 18.35426009 -6 20 C-6.29430772 21.33630117 -6.53661833 22.68419222 -6.75390625 24.03515625 C-6.88603516 24.84404297 -7.01816406 25.65292969 -7.15429688 26.48632812 C-7.28900391 27.33646484 -7.42371094 28.18660156 -7.5625 29.0625 C-7.70107422 29.91650391 -7.83964844 30.77050781 -7.98242188 31.65039062 C-8.32523005 33.76634451 -8.66307616 35.88310118 -9 38 C-9.66 38 -10.32 38 -11 38 C-11.11029541 38.60295898 -11.22059082 39.20591797 -11.33422852 39.82714844 C-12.52697473 46.0910288 -14.11411392 52.14353819 -15.9375 58.25 C-17.7266359 64.34683291 -19.38004063 70.39332493 -20.625 76.625 C-21.65770271 81.76421467 -23.12835298 86.49377522 -25.015625 91.37890625 C-26.569855 95.51735199 -27.7836854 99.7521134 -29 104 C-29.66 104 -30.32 104 -31 104 C-31.12375 105.134375 -31.2475 106.26875 -31.375 107.4375 C-31.684375 109.2009375 -31.684375 109.2009375 -32 111 C-32.99 111.495 -32.99 111.495 -34 112 C-32.55129478 104.21003245 -30.69668876 96.71417814 -28.25 89.1875 C-25.8682965 81.85608603 -23.68325538 74.49133339 -21.625 67.0625 C-21.3352832 66.01739258 -21.04556641 64.97228516 -20.74707031 63.89550781 C-20.14411802 61.71975087 -19.54125515 59.54396914 -18.93847656 57.36816406 C-16.66626806 49.2132763 -14.32858441 41.07696267 -11.98828125 32.94140625 C-10.65005573 28.28873083 -9.33773744 23.62979043 -8.04296875 18.96484375 C-7.42459865 16.76819553 -6.80611425 14.57157948 -6.1875 12.375 C-5.90970703 11.355271 -5.63191406 10.33554199 -5.34570312 9.28491211 C-5.08080078 8.35300049 -4.81589844 7.42108887 -4.54296875 6.4609375 C-4.31633545 5.64415527 -4.08970215 4.82737305 -3.85620117 3.98583984 C-3 2 -3 2 0 0 Z " fill="#D0A22D" transform="translate(257,269)"/>
<path d="M0 0 C0.66 0 1.32 0 2 0 C0.60791159 7.83058364 -1.44646633 15.38419265 -3.6953125 23.0078125 C-4.04761932 24.2144455 -4.39992615 25.42107849 -4.76290894 26.66427612 C-5.69035236 29.8379347 -6.62141661 33.01049963 -7.55432129 36.18255615 C-8.50936984 39.43329628 -9.45954378 42.68546044 -10.41015625 45.9375 C-12.2689986 52.29297346 -14.13262994 58.64702725 -16 65 C-18.67315069 60.99027397 -18.44782441 57.63889086 -18 53 C-16.16056251 43.94130138 -13.26951879 35.11920413 -10.5 26.3125 C-10.10941406 25.05888672 -9.71882813 23.80527344 -9.31640625 22.51367188 C-8.56073516 20.09526997 -7.79930247 17.67865844 -7.03125 15.26416016 C-6.38792179 13.22786796 -5.76015925 11.18651236 -5.15625 9.13818359 C-4.5262149 7.06308751 -3.77632576 5.02491637 -3 3 C-2.01 2.67 -1.02 2.34 0 2 C0 1.34 0 0.68 0 0 Z " fill="#2E5537" transform="translate(417,190)"/>
<path d="M0 0 C0.66 0.99 1.32 1.98 2 3 C1.23950195 5.2331543 1.23950195 5.2331543 0 8 C-0.64283771 10.41484438 -1.24990739 12.83933671 -1.83203125 15.26953125 C-3.91433493 23.80282833 -6.26190642 32.24626844 -8.6875 40.6875 C-8.89977234 41.42948639 -9.11204468 42.17147278 -9.33074951 42.9359436 C-13.65287615 58.03117123 -18.25749541 73.03179512 -23 88 C-23.66 87.67 -24.32 87.34 -25 87 C-23.47413613 77.71915741 -21.62810719 68.68458866 -17.9375 60 C-16.52594695 56.62721272 -15.65163645 53.52850839 -15.09765625 49.91796875 C-14.05665941 43.87461486 -12.35627244 38.14927296 -10.5 32.3125 C-8.48685428 25.90665346 -6.55042452 19.53503934 -5 13 C-4.34 13 -3.68 13 -3 13 C-2.87625 11.96875 -2.7525 10.9375 -2.625 9.875 C-2.06110186 6.37883154 -1.21317941 3.31602373 0 0 Z " fill="#FCDA69" transform="translate(251,294)"/>
<path d="M0 0 C0.66 0 1.32 0 2 0 C0.80286079 6.83629498 -0.93398112 13.42277408 -2.88989258 20.07861328 C-3.94597214 23.74569902 -4.8589008 27.43847563 -5.75390625 31.1484375 C-7.99799806 40.26909149 -10.61209859 49.275508 -13.26391602 58.28466797 C-14.06928492 61.02306997 -14.86793223 63.76337316 -15.66601562 66.50390625 C-16.18449952 68.27355366 -16.70336586 70.04308908 -17.22265625 71.8125 C-17.57433617 73.0205127 -17.57433617 73.0205127 -17.93312073 74.25292969 C-19.4132328 79.26200462 -20.99226633 84.17468484 -23 89 C-23.99 89.495 -23.99 89.495 -25 90 C-23.96262479 82.20180016 -21.82983577 74.85948654 -19.52050781 67.3684082 C-17.39519137 60.43080421 -15.48020912 53.45175143 -13.625 46.4375 C-9.48884134 30.85641557 -5.15102901 15.28002596 0 0 Z " fill="#BCD372" transform="translate(295,140)"/>
<path d="M0 0 C0.66 0 1.32 0 2 0 C2 2.97 2 5.94 2 9 C2.99 9.33 3.98 9.66 5 10 C2.86602101 18.73089879 0.71981556 27.42846005 -2 36 C-4.475 36.495 -4.475 36.495 -7 37 C-7 36.34 -7 35.68 -7 35 C-7.66 35 -8.32 35 -9 35 C-8.40553464 30.24691919 -7.48736429 25.78981032 -6.15234375 21.19140625 C-5.79462891 19.95068359 -5.43691406 18.70996094 -5.06835938 17.43164062 C-4.69150862 16.14189717 -4.31455423 14.85218399 -3.9375 13.5625 C-3.55621014 12.24556727 -3.1753469 10.92851094 -2.79492188 9.61132812 C-1.86746338 6.40631333 -0.93569947 3.20261665 0 0 Z " fill="#9E845E" transform="translate(363,357)"/>
<path d="M0 0 C0.66 0 1.32 0 2 0 C2.33934036 6.44008981 1.22855017 11.37634032 -0.875 17.4375 C-3.72093134 25.83231662 -6.35283325 33.72333035 -6 42.6875 C-5.81990924 47.29669798 -6.3425874 50.68166327 -8 55 C-8.66 55 -9.32 55 -10 55 C-10 54.34 -10 53.68 -10 53 C-10.66 53 -11.32 53 -12 53 C-12 52.01 -12 51.02 -12 50 C-12.66 49.67 -13.32 49.34 -14 49 C-9.38 32.83 -4.76 16.66 0 0 Z " fill="#52854D" transform="translate(406,207)"/>
<path d="M0 0 C1.21236328 0.01353516 1.21236328 0.01353516 2.44921875 0.02734375 C3.37154297 0.04474609 3.37154297 0.04474609 4.3125 0.0625 C4.3125 1.3825 4.3125 2.7025 4.3125 4.0625 C3.15621094 4.36994141 3.15621094 4.36994141 1.9765625 4.68359375 C0.97367187 4.95300781 -0.02921875 5.22242188 -1.0625 5.5 C-2.06023437 5.76683594 -3.05796875 6.03367187 -4.0859375 6.30859375 C-6.64167701 6.96434356 -6.64167701 6.96434356 -8.6875 8.0625 C-11.01842377 8.41228553 -13.35233338 8.74226194 -15.6875 9.0625 C-17.06265234 9.30571749 -18.4363568 9.55724519 -19.80859375 9.81640625 C-20.51693359 9.94853516 -21.22527344 10.08066406 -21.95507812 10.21679688 C-23.39863665 10.48835739 -24.84136258 10.76438277 -26.28320312 11.04492188 C-31.16371779 11.94478062 -35.72405825 12.19120255 -40.6875 12.0625 C-40.3575 11.4025 -40.0275 10.7425 -39.6875 10.0625 C-40.6775 9.4025 -41.6675 8.7425 -42.6875 8.0625 C-41.41777344 7.89234375 -40.14804687 7.7221875 -38.83984375 7.546875 C-26.38947382 5.81593735 -12.26415107 -0.17774132 0 0 Z " fill="#DC932E" transform="translate(380.6875,281.9375)"/>
<path d="M0 0 C1.73811726 4.15284426 0.16689192 7.88919488 -1.0546875 11.9765625 C-1.27569122 12.74302094 -1.49669495 13.50947937 -1.72439575 14.29916382 C-2.43203322 16.74390228 -3.15355763 19.18430422 -3.875 21.625 C-4.35372942 23.27579111 -4.83160401 24.92683038 -5.30859375 26.578125 C-8.8033557 38.6067114 -8.8033557 38.6067114 -10 41 C-10.66 41 -11.32 41 -12 41 C-12.56065807 30.75241642 -11.20790515 22.75249996 -8 13 C-7.51853516 11.15341797 -7.51853516 11.15341797 -7.02734375 9.26953125 C-5.80310221 5.37337091 -4.04397257 3.65371968 -1 1 C-0.67 0.67 -0.34 0.34 0 0 Z " fill="#92785D" transform="translate(377,325)"/>
<path d="M0 0 C0.99 0 1.98 0 3 0 C-3.20580836 25.10674754 -3.20580836 25.10674754 -5.625 31.3125 C-6.85096591 34.60031767 -7.56645061 37.53160488 -8 41 C-8.66 41 -9.32 41 -10 41 C-10 41.66 -10 42.32 -10 43 C-11.32 43.66 -12.64 44.32 -14 45 C-13.75765625 44.030625 -13.5153125 43.06125 -13.265625 42.0625 C-13.02573853 41.102229 -13.02573853 41.102229 -12.78100586 40.12255859 C-12.42336131 38.69296698 -12.06478149 37.26360906 -11.70532227 35.83447266 C-10.76486373 32.08983452 -9.83929022 28.34289639 -8.94921875 24.5859375 C-8.77938477 23.87953125 -8.60955078 23.173125 -8.43457031 22.4453125 C-7.96089773 20.47245223 -7.49394507 18.49798214 -7.02734375 16.5234375 C-6.01898326 13.0651061 -4.69198237 10.17024066 -3 7 C-2.42364064 5.71445773 -1.85804571 4.42391836 -1.3125 3.125 C-0.879375 2.09375 -0.44625 1.0625 0 0 Z " fill="#4C7341" transform="translate(427,149)"/>
<path d="M0 0 C5.53404539 -0.16769835 10.08531124 0.78544458 15.29101562 2.61914062 C16.44682129 3.01528564 16.44682129 3.01528564 17.62597656 3.41943359 C26.59474763 6.62098628 35.07062844 10.93344951 42.90039062 16.36132812 C45.54183051 18.38734694 45.54183051 18.38734694 48.66601562 18.11914062 C50.66601562 20.11914062 50.66601562 20.11914062 50.66601562 24.11914062 C49.34601563 24.44914062 48.02601563 24.77914063 46.66601562 25.11914062 C46.66601562 23.79914063 46.66601562 22.47914063 46.66601562 21.11914062 C45.67601562 20.75755859 45.67601562 20.75755859 44.66601562 20.38867188 C41.6036079 19.09273111 38.75572541 17.59009574 35.84155273 15.99633789 C21.10310003 7.93658253 7.58810675 2.95935275 -9.33398438 2.49414062 C-10.49027344 2.45546875 -11.6465625 2.41679687 -12.83789062 2.37695312 C-15.66976917 2.28333731 -18.50165232 2.19760388 -21.33398438 2.11914062 C-21.33398438 1.78914063 -21.33398438 1.45914062 -21.33398438 1.11914062 C-18.35496372 0.94943039 -15.37581182 0.78330312 -12.39648438 0.61914062 C-11.56568359 0.57144531 -10.73488281 0.52375 -9.87890625 0.47460938 C-6.58676549 0.29527097 -3.29265657 0.16807703 0 0 Z " fill="#1C659E" transform="translate(159.333984375,350.880859375)"/>
<path d="M0 0 C0.66 0.33 1.32 0.66 2 1 C0.6468117 7.35104887 -0.94103892 13.57715579 -2.75 19.8125 C-3.0087793 20.71033203 -3.26755859 21.60816406 -3.53417969 22.53320312 C-5.41334378 29.0298066 -7.32030883 35.51823225 -9.25 42 C-9.49588867 42.82991455 -9.74177734 43.6598291 -9.99511719 44.51489258 C-11.16797292 48.42454651 -12.39323528 52.24077688 -14 56 C-16.22200535 49.33398396 -13.2855443 41.89774965 -11.34765625 35.390625 C-11.08746201 34.50139343 -10.82726776 33.61216187 -10.55918884 32.69598389 C-10.01157464 30.82949241 -9.46095501 28.9638803 -8.9074707 27.09912109 C-8.06150981 24.24666123 -7.226347 21.39120076 -6.39257812 18.53515625 C-5.85740426 16.71595937 -5.32161823 14.89694244 -4.78515625 13.078125 C-4.41161766 11.80149994 -4.41161766 11.80149994 -4.03053284 10.49908447 C-3.67522743 9.30699371 -3.67522743 9.30699371 -3.31274414 8.09082031 C-3.10702286 7.3954718 -2.90130157 6.70012329 -2.68934631 5.98370361 C-1.95886362 3.88162353 -1.03543301 1.96756197 0 0 Z " fill="#98BCD3" transform="translate(241,257)"/>
<path d="M0 0 C0 0.66 0 1.32 0 2 C0.66 2.33 1.32 2.66 2 3 C-6.96246759 6.73650153 -15.89715256 9.66196238 -25.375 11.8125 C-26.27686035 12.0189917 -27.1787207 12.2254834 -28.10791016 12.43823242 C-35.84363893 14.12524197 -43.70363466 15.58096126 -51.625 14.5625 C-52.46289062 14.46066406 -53.30078125 14.35882813 -54.1640625 14.25390625 C-54.76992188 14.17011719 -55.37578125 14.08632813 -56 14 C-56 13.67 -56 13.34 -56 13 C-55.01644531 12.91363281 -54.03289062 12.82726562 -53.01953125 12.73828125 C-36.38612813 11.11908241 -20.45853013 7.39903628 -4.95703125 1.13671875 C-2 0 -2 0 0 0 Z " fill="#E7A222" transform="translate(354,390)"/>
<path d="M0 0 C0.66 0 1.32 0 2 0 C-1.9270561 17.18336225 -1.9270561 17.18336225 -4.140625 24.2421875 C-5.37055895 28.18915736 -6.52508004 32.15770751 -7.6875 36.125 C-8.12884797 37.62762129 -8.5702496 39.13022681 -9.01171875 40.6328125 C-9.33785156 41.74398437 -9.66398437 42.85515625 -10 44 C-10.33 44 -10.66 44 -11 44 C-12.731473 35.48612056 -10.96726001 28.93171013 -8.25 20.8125 C-7.8890625 19.67619141 -7.528125 18.53988281 -7.15625 17.36914062 C-2.30885909 2.30885909 -2.30885909 2.30885909 0 0 Z " fill="#E06E3D" transform="translate(279,126)"/>
<path d="M0 0 C-3.31585402 2.02340481 -5.35563927 2.1121747 -9.171875 1.62890625 C-17.20514454 0.7999412 -25.18471804 0.89102686 -33.25 0.9375 C-34.78515478 0.94252957 -36.32031116 0.94708988 -37.85546875 0.95117188 C-41.5703467 0.96205161 -45.28516259 0.97923423 -49 1 C-47.36959735 -0.95203782 -46.40472877 -1.90318843 -43.89746094 -2.50292969 C-43.10114258 -2.55868164 -42.30482422 -2.61443359 -41.484375 -2.671875 C-40.59556641 -2.73568359 -39.70675781 -2.79949219 -38.79101562 -2.86523438 C-25.52528448 -3.50577703 -12.8701269 -3.68972921 0 0 Z " fill="#EF8429" transform="translate(212,218)"/>
<path d="M0 0 C0.66 0.33 1.32 0.66 2 1 C1.22797895 6.90545976 -0.50080836 12.49362154 -2.1875 18.1875 C-2.65289185 19.76543335 -2.65289185 19.76543335 -3.12768555 21.37524414 C-4.07883691 24.58541028 -5.03792743 27.79309144 -6 31 C-6.29165039 31.97646484 -6.58330078 32.95292969 -6.88378906 33.95898438 C-7.68333777 36.62167613 -8.49499134 39.28027461 -9.3125 41.9375 C-9.67541138 43.14345825 -9.67541138 43.14345825 -10.0456543 44.3737793 C-10.63791188 46.26871129 -11.31109152 48.13802755 -12 50 C-12.99 50.495 -12.99 50.495 -14 51 C-12.59417422 43.24289486 -10.68806978 35.64587937 -8.65087891 28.0324707 C-8.1271877 26.07069525 -7.61218754 24.10677314 -7.09765625 22.14257812 C-5.09021964 14.60514977 -2.82820042 7.27102897 0 0 Z " fill="#759FC1" transform="translate(222,321)"/>
<path d="M0 0 C-0.94875 0.12375 -1.8975 0.2475 -2.875 0.375 C-12.15857506 1.73091043 -20.90890632 4.03752176 -29.8125 7 C-30.85599609 7.34417969 -31.89949219 7.68835938 -32.97460938 8.04296875 C-37.52023573 9.59687638 -41.24827811 10.92947033 -45 14 C-45.66 13.67 -46.32 13.34 -47 13 C-47 12.01 -47 11.02 -47 10 C-37.44533115 6.54055093 -27.84559478 3.22232617 -18.1875 0.0625 C-17.2392334 -0.255979 -16.2909668 -0.57445801 -15.31396484 -0.90258789 C-14.42016113 -1.19125732 -13.52635742 -1.47992676 -12.60546875 -1.77734375 C-11.81293701 -2.03765381 -11.02040527 -2.29796387 -10.20385742 -2.56616211 C-6.27002115 -3.34055305 -3.43162378 -1.83836988 0 0 Z " fill="#ED6A25" transform="translate(168,220)"/>
<path d="M0 0 C0.66 0.33 1.32 0.66 2 1 C-1.42890596 4.45382255 -4.86123426 7.90419588 -8.29663086 11.3515625 C-9.46226679 12.52219425 -10.62699964 13.69372601 -11.79077148 14.86621094 C-22.71899003 25.87412906 -22.71899003 25.87412906 -27.09375 29.53125 C-29.63652786 31.6912441 -31.52321625 33.66698884 -33.4375 36.375 C-33.93121094 37.06335938 -34.42492188 37.75171875 -34.93359375 38.4609375 C-35.46146484 39.22277344 -35.46146484 39.22277344 -36 40 C-36 30.03598689 -19.44344689 17.61112414 -12.72265625 10.63671875 C-11 9 -11 9 -8.625 7.625 C-5.19647354 5.50257886 -2.78399192 2.91347992 0 0 Z " fill="#768393" transform="translate(87,64)"/>
<path d="M0 0 C1.87890625 0.14453125 3.7578125 0.2890625 5.63671875 0.43359375 C6.82442871 0.52495605 8.01213867 0.61631836 9.23583984 0.71044922 C21.50268555 1.65405273 21.50268555 1.65405273 33.76953125 2.59765625 C34.77604736 2.67508057 35.78256348 2.75250488 36.81958008 2.83227539 C37.89888794 2.91529907 37.89888794 2.91529907 39 3 C35.92612512 6.07387488 32.79383097 5.29223274 28.59155273 5.328125 C27.46821533 5.32296875 26.34487793 5.3178125 25.1875 5.3125 C24.05578369 5.31121094 22.92406738 5.30992187 21.75805664 5.30859375 C13.7925608 5.2170429 6.59842182 4.53784267 -1 2 C-0.67 1.34 -0.34 0.68 0 0 Z " fill="#B3CD6E" transform="translate(305,269)"/>
<path d="M0 0 C0 0.33 0 0.66 0 1 C-0.67546875 1.19335938 -1.3509375 1.38671875 -2.046875 1.5859375 C-2.93890625 1.84632813 -3.8309375 2.10671875 -4.75 2.375 C-5.63171875 2.63023437 -6.5134375 2.88546875 -7.421875 3.1484375 C-9.97587644 3.91783705 -9.97587644 3.91783705 -12.125 5.09375 C-14.7691039 6.37173355 -17.10921446 6.13139934 -20 6 C-20 6.66 -20 7.32 -20 8 C-23.3 8.66 -26.6 9.32 -30 10 C-30.33 9.34 -30.66 8.68 -31 8 C-27.17086373 5.94121764 -23.12511684 4.45959255 -19.0625 2.9375 C-18.35931641 2.66873047 -17.65613281 2.39996094 -16.93164062 2.12304688 C-10.89929786 -0.14402852 -6.46018494 -1.35213173 0 0 Z " fill="#E13625" transform="translate(152,225)"/>
<path d="M0 0 C0.66 0.99 1.32 1.98 2 3 C1.24609375 5.2109375 1.24609375 5.2109375 0 8 C-0.6800589 10.53851946 -1.32568355 13.07049923 -1.9375 15.625 C-2.28709433 17.04573698 -2.63735847 18.46630931 -2.98828125 19.88671875 C-3.15924316 20.58200684 -3.33020508 21.27729492 -3.50634766 21.99365234 C-4.19973903 24.8117979 -4.89946422 27.62742996 -5.625 30.4375 C-5.84414062 31.30246094 -6.06328125 32.16742188 -6.2890625 33.05859375 C-7 35 -7 35 -9 36 C-8.63259093 27.91700056 -7.74049239 20.63545993 -5 13 C-4.34 13 -3.68 13 -3 13 C-2.814375 11.453125 -2.814375 11.453125 -2.625 9.875 C-2.06110186 6.37883154 -1.21317941 3.31602373 0 0 Z " fill="#FCD65D" transform="translate(251,294)"/>
<path d="M0 0 C0.99 0.33 1.98 0.66 3 1 C2.360625 1.185625 1.72125 1.37125 1.0625 1.5625 C-1.350056 2.88462457 -1.350056 2.88462457 -1.5625 6.0625 C-1.706875 7.361875 -1.85125 8.66125 -2 10 C-4.35426009 18.35426009 -4.35426009 18.35426009 -6 20 C-6.71467577 23.51875393 -7.35468716 27.04782142 -7.98828125 30.58203125 C-9.07941691 34.26830037 -10.24251815 35.45663751 -13 38 C-10.98260493 29.74752402 -8.82986543 21.54479012 -6.5 13.375 C-6.20480469 12.30121094 -5.90960938 11.22742188 -5.60546875 10.12109375 C-5.16654297 8.58775391 -5.16654297 8.58775391 -4.71875 7.0234375 C-4.46029297 6.10481934 -4.20183594 5.18620117 -3.93554688 4.23974609 C-3 2 -3 2 0 0 Z " fill="#C79C35" transform="translate(257,269)"/>
<path d="M0 0 C0.33 0 0.66 0 1 0 C0.66515348 6.13885295 -0.63854801 11.69437956 -2.375 17.5625 C-2.58406982 18.27011475 -2.79313965 18.97772949 -3.00854492 19.70678711 C-4.47843697 24.55277613 -6.06523235 29.31827614 -8 34 C-8.99 34.495 -8.99 34.495 -10 35 C-9.02270399 27.65342997 -7.12277049 20.64521766 -5 13.5625 C-4.73880371 12.68625977 -4.47760742 11.81001953 -4.20849609 10.90722656 C-3.04378001 7.08778396 -1.8673351 3.54182578 0 0 Z " fill="#C3D87A" transform="translate(280,195)"/>
<path d="M0 0 C0.99 0 1.98 0 3 0 C1.90725144 8.37773893 0.66967601 16.32704106 -3 24 C-5.475 23.01 -5.475 23.01 -8 22 C-7 20 -7 20 -5 17 C-4.52323868 15.67881126 -4.09680492 14.33881721 -3.7109375 12.98828125 C-3.49179688 12.23095703 -3.27265625 11.47363281 -3.046875 10.69335938 C-2.82515625 9.90767578 -2.6034375 9.12199219 -2.375 8.3125 C-2.14554688 7.51521484 -1.91609375 6.71792969 -1.6796875 5.89648438 C-1.11513764 3.9323213 -0.55695012 1.96633153 0 0 Z " fill="#EEA530" transform="translate(251,214)"/>
<path d="M0 0 C2.375 1.25 2.375 1.25 3.375 4.25 C2.715 4.25 2.055 4.25 1.375 4.25 C1.24222656 4.94867188 1.10945313 5.64734375 0.97265625 6.3671875 C0.79605469 7.27726562 0.61945313 8.18734375 0.4375 9.125 C0.26347656 10.02992188 0.08945312 10.93484375 -0.08984375 11.8671875 C-0.625 14.25 -0.625 14.25 -1.625 16.25 C-2.285 16.25 -2.945 16.25 -3.625 16.25 C-3.625 11.63 -3.625 7.01 -3.625 2.25 C-5.275 2.25 -6.925 2.25 -8.625 2.25 C-3.675 -1.05 -3.675 -1.05 0 0 Z " fill="#8E7056" transform="translate(388.625,279.75)"/>
<path d="M0 0 C0.33 0.99 0.66 1.98 1 3 C1.80695313 3.06445312 2.61390625 3.12890625 3.4453125 3.1953125 C8.15418733 4.26127757 11.75939017 6.41260971 15.875 8.875 C16.65875 9.32230469 17.4425 9.76960938 18.25 10.23046875 C18.98992187 10.66746094 19.72984375 11.10445313 20.4921875 11.5546875 C21.50321533 12.14999268 21.50321533 12.14999268 22.53466797 12.75732422 C23.01822754 13.16740723 23.50178711 13.57749023 24 14 C24 14.99 24 15.98 24 17 C21.78904188 15.92177933 19.58132694 14.83762596 17.375 13.75 C16.75753906 13.44964844 16.14007813 13.14929688 15.50390625 12.83984375 C12.40222314 11.30532684 9.59857049 9.72855719 6.71875 7.78125 C3.79001266 5.86242209 2.42026989 5.59761531 -1 6 C-1.042721 4.33388095 -1.04063832 2.66617115 -1 1 C-0.67 0.67 -0.34 0.34 0 0 Z " fill="#E4A722" transform="translate(224,380)"/>
<path d="M0 0 C0.66 0.33 1.32 0.66 2 1 C0.608547 10.61556329 -2.15519377 19.73809271 -5 29 C-6.13732426 25.59598052 -5.83989957 23.22543336 -5.0625 19.75 C-4.77052734 18.41195312 -4.77052734 18.41195312 -4.47265625 17.046875 C-4.31667969 16.37140625 -4.16070312 15.6959375 -4 15 C-4.33 15 -4.66 15 -5 15 C-4.125 7.375 -4.125 7.375 -3 4 C-2.34 4 -1.68 4 -1 4 C-0.67 2.68 -0.34 1.36 0 0 Z " fill="#DC8B34" transform="translate(257,200)"/>
<path d="M0 0 C0.33 0 0.66 0 1 0 C1.1941204 5.53243128 0.61340977 9.65558013 -1 15 C-1.16928543 17.79244045 -1.16928543 17.79244045 -1 20 C-0.34 20.33 0.32 20.66 1 21 C1.185625 19.081875 1.185625 19.081875 1.375 17.125 C1.75 13.25 1.75 13.25 4 11 C3.49202991 15.3177458 2.80317221 19.03302114 1 23 C-0.32 23 -1.64 23 -3 23 C-3 22.34 -3 21.68 -3 21 C-3.66 21 -4.32 21 -5 21 C-4.3900874 16.01155691 -3.36525565 11.39844654 -1.9375 6.5625 C-1.57527344 5.32628906 -1.21304687 4.09007812 -0.83984375 2.81640625 C-0.56269531 1.88699219 -0.28554688 0.95757812 0 0 Z " fill="#C4894F" transform="translate(359,371)"/>
<path d="M0 0 C-14.35268941 5.28783294 -26.9457326 6.43127628 -42 5 C-42 4.67 -42 4.34 -42 4 C-40.93265625 3.97421875 -39.8653125 3.9484375 -38.765625 3.921875 C-29.10706525 3.586554 -19.97946199 2.44879488 -10.55175781 0.28417969 C-9.75350586 0.10532227 -8.95525391 -0.07353516 -8.1328125 -0.2578125 C-7.07924561 -0.50748779 -7.07924561 -0.50748779 -6.00439453 -0.76220703 C-3.75048499 -1.02960142 -2.15155825 -0.67496318 0 0 Z " fill="#99C04C" transform="translate(372,267)"/>
<path d="M0 0 C0.33 0 0.66 0 1 0 C1.40780332 8.29200078 -0.39227907 15.17683722 -3 23 C-3.66 23 -4.32 23 -5 23 C-5.12375 24.134375 -5.2475 25.26875 -5.375 26.4375 C-5.58125 27.613125 -5.7875 28.78875 -6 30 C-6.66 30.33 -7.32 30.66 -8 31 C-5.943783 20.45143964 -3.14461795 10.26661829 0 0 Z " fill="#B8963A" transform="translate(231,350)"/>
<path d="M0 0 C-2.73066233 3.57086613 -6.63170387 4.47994152 -10.75 5.75 C-11.78640625 6.09998047 -11.78640625 6.09998047 -12.84375 6.45703125 C-17.65993352 7.96887833 -21.06157083 8.06008165 -26 7 C-25.67 5.68 -25.34 4.36 -25 3 C-25 3.99 -25 4.98 -25 6 C-23.78183594 5.566875 -22.56367187 5.13375 -21.30859375 4.6875 C-19.68509146 4.12443562 -18.06138243 3.56196711 -16.4375 3 C-15.63763672 2.71382813 -14.83777344 2.42765625 -14.01367188 2.1328125 C-9.12174693 0.45558109 -5.17046121 -0.33313039 0 0 Z " fill="#3570A1" transform="translate(114,355)"/>
<path d="M0 0 C1.1528275 3.40157696 0.8304192 5.49869205 -0.1796875 8.9140625 C-0.44910156 9.83960938 -0.71851563 10.76515625 -0.99609375 11.71875 C-1.28613281 12.6778125 -1.57617188 13.636875 -1.875 14.625 C-2.15730469 15.59179688 -2.43960937 16.55859375 -2.73046875 17.5546875 C-4.81624681 24.63249362 -4.81624681 24.63249362 -6 27 C-6.66 27 -7.32 27 -8 27 C-7.36151885 21.11001137 -5.82378303 15.75119859 -4 10.125 C-3.72671875 9.25875 -3.4534375 8.3925 -3.171875 7.5 C-1.1374568 1.1374568 -1.1374568 1.1374568 0 0 Z " fill="#8D725A" transform="translate(385,297)"/>
<path d="M0 0 C7.1191234 -0.8089913 12.62116486 2.06720223 19 5 C19 6.32 19 7.64 19 9 C15.59687262 7.94124926 12.98646769 6.99097846 10 5 C8.11966003 4.40678131 6.22129792 3.86904181 4.3125 3.375 C3.31863281 3.11460937 2.32476562 2.85421875 1.30078125 2.5859375 C0.16189453 2.29589844 0.16189453 2.29589844 -1 2 C-0.67 1.34 -0.34 0.68 0 0 Z " fill="#EC7121" transform="translate(208,219)"/>
<path d="M0 0 C6.22492092 2.99718414 12.1155372 6.38250238 18 10 C18.99 8.02 19.98 6.04 21 4 C21.33 4.66 21.66 5.32 22 6 C20.8125 9.5625 20.8125 9.5625 19 13 C16.8125 13.9375 16.8125 13.9375 15 14 C14.81695312 13.42765625 14.63390625 12.8553125 14.4453125 12.265625 C12.33752278 8.9615222 9.24245815 7.55042317 5.875 5.75 C5.21628906 5.38648438 4.55757812 5.02296875 3.87890625 4.6484375 C2.25799664 3.75576264 0.62968964 2.87654325 -1 2 C-0.67 1.34 -0.34 0.68 0 0 Z " fill="#EB4E23" transform="translate(229,227)"/>
<path d="M0 0 C4.19511576 -0.07521585 8.38985477 -0.12909381 12.58544922 -0.16479492 C14.00706841 -0.17970701 15.42864307 -0.20004409 16.85009766 -0.22631836 C25.96211491 -0.39029609 34.22401673 0.22385979 43 3 C43 3.33 43 3.66 43 4 C38.82977731 4.18955558 35.1567843 3.87893779 31.0625 3.0625 C20.84700244 1.21348183 10.352734 1.30892438 0 1 C0 0.67 0 0.34 0 0 Z " fill="#C12B27" transform="translate(202,103)"/>
<path d="M0 0 C0.33 0 0.66 0 1 0 C1.59972035 8.46272046 0.07794799 15.12649912 -3 23 C-3.66 23 -4.32 23 -5 23 C-5.33 23.66 -5.66 24.32 -6 25 C-5.22805781 19.58753175 -3.85429135 14.39530508 -2.4375 9.125 C-2.20353516 8.24585938 -1.96957031 7.36671875 -1.72851562 6.4609375 C-1.15481145 4.30661979 -0.57857836 2.1530128 0 0 Z " fill="#A87F5B" transform="translate(371,331)"/>
<path d="M0 0 C-4.25866896 1.60436031 -8.52134373 3.19501097 -12.796875 4.75390625 C-13.61027344 5.05103516 -14.42367187 5.34816406 -15.26171875 5.65429688 C-16.93561996 6.26525768 -18.61011089 6.87460495 -20.28515625 7.48242188 C-21.09339844 7.77826172 -21.90164062 8.07410156 -22.734375 8.37890625 C-23.45850586 8.6426001 -24.18263672 8.90629395 -24.92871094 9.17797852 C-27.02080809 10.008258 -29.0026058 10.96444957 -31 12 C-31.33 11.01 -31.66 10.02 -32 9 C-4.98850575 -2.49425287 -4.98850575 -2.49425287 0 0 Z " fill="#3A70A9" transform="translate(149,245)"/>
<path d="M0 0 C0 0.66 0 1.32 0 2 C0.66 2.33 1.32 2.66 2 3 C-0.62353518 4.00399524 -3.24867795 5.00334445 -5.875 6 C-6.62136719 6.28617187 -7.36773437 6.57234375 -8.13671875 6.8671875 C-13.7734375 9 -13.7734375 9 -16 9 C-16 8.34 -16 7.68 -16 7 C-16.66 6.67 -17.32 6.34 -18 6 C-15.37646482 4.99600476 -12.75132205 3.99665555 -10.125 3 C-9.37863281 2.71382813 -8.63226563 2.42765625 -7.86328125 2.1328125 C-2.2265625 0 -2.2265625 0 0 0 Z " fill="#E09826" transform="translate(354,390)"/>
<path d="M0 0 C0.33 0 0.66 0 1 0 C0.50596529 9.05730307 -2.32226777 17.39370934 -5 26 C-7.13586678 22.79619983 -7.23132175 21.98060033 -7.125 18.3125 C-7.10695313 17.50425781 -7.08890625 16.69601563 -7.0703125 15.86328125 C-7.04710937 15.24839844 -7.02390625 14.63351563 -7 14 C-6.34 14.66 -5.68 15.32 -5 16 C-3.35 10.72 -1.7 5.44 0 0 Z " fill="#32543C" transform="translate(406,229)"/>
<path d="M0 0 C1.32 0.66 2.64 1.32 4 2 C4 3.32 4 4.64 4 6 C3.01 6.33 2.02 6.66 1 7 C-0.24950052 9.55401848 -0.24950052 9.55401848 -1.1875 12.5625 C-1.53167969 13.57441406 -1.87585938 14.58632812 -2.23046875 15.62890625 C-2.48441406 16.41136719 -2.73835938 17.19382813 -3 18 C-3.99 17.67 -4.98 17.34 -6 17 C-3.84682713 6.6892779 -3.84682713 6.6892779 -0.3125 3.8125 C0.450625 3.544375 1.21375 3.27625 2 3 C1.34 2.67 0.68 2.34 0 2 C0 1.34 0 0.68 0 0 Z " fill="#4C7944" transform="translate(426,143)"/>
<path d="M0 0 C6.20477864 1.93624298 12.10825719 4.25609141 18 7 C18 7.66 18 8.32 18 9 C11.30965634 8.55397709 5.97187878 5.92654458 0 3 C0 2.01 0 1.02 0 0 Z " fill="#9CBF52" transform="translate(282,260)"/>
<path d="M0 0 C-2.32431618 2.32431618 -3.88932258 2.75875528 -7.0078125 3.7265625 C-7.99394531 4.0359375 -8.98007813 4.3453125 -9.99609375 4.6640625 C-11.02863281 4.98117187 -12.06117187 5.29828125 -13.125 5.625 C-14.16527344 5.94984375 -15.20554687 6.2746875 -16.27734375 6.609375 C-18.84988737 7.4118198 -21.42409194 8.20843503 -24 9 C-23.67 8.01 -23.34 7.02 -23 6 C-20.39231738 4.81549332 -17.88180426 3.81317419 -15.1875 2.875 C-14.46240234 2.61074219 -13.73730469 2.34648437 -12.99023438 2.07421875 C-3.75960165 -1.25320055 -3.75960165 -1.25320055 0 0 Z " fill="#165190" transform="translate(110,359)"/>
<path d="M0 0 C0.66 0.33 1.32 0.66 2 1 C1.37957611 5.26621377 0.41324383 9.21949133 -0.9375 13.3125 C-1.27652344 14.36050781 -1.61554688 15.40851563 -1.96484375 16.48828125 C-3 19 -3 19 -5 20 C-4.52432875 12.74601342 -2.70533406 6.73187777 0 0 Z " fill="#82ABC8" transform="translate(222,321)"/>
<path d="M0 0 C1.03115279 3.26913624 0.9638984 5.86041348 0.5625 9.25 C0.46066406 10.14203125 0.35882813 11.0340625 0.25390625 11.953125 C0.17011719 12.62859375 0.08632812 13.3040625 0 14 C-0.99 14.33 -1.98 14.66 -3 15 C-3.12375 15.928125 -3.2475 16.85625 -3.375 17.8125 C-4 21 -4 21 -6 24 C-5.66666667 21.66666667 -5.33333333 19.33333333 -5 17 C-4.855625 15.7625 -4.71125 14.525 -4.5625 13.25 C-4 10 -4 10 -2 7 C-1.29187186 4.67891331 -0.61975848 2.34622853 0 0 Z " fill="#F9CC47" transform="translate(254,279)"/>
<path d="M0 0 C1.24939706 4.55780049 1.8340199 8.9670765 0 13.4375 C-0.33 13.953125 -0.66 14.46875 -1 15 C-1.66 15 -2.32 15 -3 15 C-3.66 17.64 -4.32 20.28 -5 23 C-6.00569779 18.97720885 -6.00730064 18.14449989 -4.78515625 14.453125 C-4.51123047 13.60878906 -4.23730469 12.76445312 -3.95507812 11.89453125 C-3.51325195 10.58548828 -3.51325195 10.58548828 -3.0625 9.25 C-2.77181641 8.36183594 -2.48113281 7.47367187 -2.18164062 6.55859375 C-1.46360682 4.36917921 -0.73614477 2.18337811 0 0 Z " fill="#FCD454" transform="translate(242,322)"/>
<path d="M0 0 C1.66666667 0.66666667 3.33333333 1.33333333 5 2 C5.86625 2.33 6.7325 2.66 7.625 3 C10 4 10 4 13 6 C13 7.32 13 8.64 13 10 C11.68 10.33 10.36 10.66 9 11 C9 9.68 9 8.36 9 7 C8.2575 6.71125 7.515 6.4225 6.75 6.125 C4.43260203 5.17697356 2.22082885 4.15154089 0 3 C0 2.01 0 1.02 0 0 Z " fill="#31689F" transform="translate(197,365)"/>
<path d="M0 0 C2.30823001 4.61646002 -0.6868714 11.97363405 -2.125 16.6875 C-2.41375 17.450625 -2.7025 18.21375 -3 19 C-3.33 19 -3.66 19 -4 19 C-4.23496938 12.62971909 -3.99224297 7.08740907 -2 1 C-1.34 0.67 -0.68 0.34 0 0 Z " fill="#DEAE2D" transform="translate(236,339)"/>
<path d="M0 0 C0.99 0.33 1.98 0.66 3 1 C-3.99990751 6.09506542 -11.17923111 11.23811117 -19 15 C-19.66 14.67 -20.32 14.34 -21 14 C-17.57377051 11.62909013 -14.13234916 9.28125582 -10.6875 6.9375 C-9.71103516 6.26138672 -8.73457031 5.58527344 -7.72851562 4.88867188 C-6.79072266 4.25380859 -5.85292969 3.61894531 -4.88671875 2.96484375 C-4.02264404 2.3730835 -3.15856934 1.78132324 -2.26831055 1.17163086 C-1.14549683 0.59167358 -1.14549683 0.59167358 0 0 Z " fill="#647B93" transform="translate(404,464)"/>
<path d="M0 0 C0.33 0.66 0.66 1.32 1 2 C1.66 2.33 2.32 2.66 3 3 C2.34 3 1.68 3 1 3 C1 7.29 1 11.58 1 16 C-0.65 16.33 -2.3 16.66 -4 17 C-2.91103333 11.24237834 -1.70663707 5.60752181 0 0 Z " fill="#799A44" transform="translate(264,236)"/>
<path d="M0 0 C5.36095277 1.58921525 10.70843973 3.18972938 16 5 C13 7 13 7 10.87890625 6.8984375 C6.19113142 5.83914268 3.00011511 5.0436334 0 1 C0 0.67 0 0.34 0 0 Z " fill="#EBB11D" transform="translate(248,394)"/>
<path d="M0 0 C0.33 0 0.66 0 1 0 C2.51708428 11.52164009 2.51708428 11.52164009 0 17 C-0.66 17 -1.32 17 -2 17 C-2 16.34 -2 15.68 -2 15 C-2.66 14.67 -3.32 14.34 -4 14 C-3.01 13.67 -2.02 13.34 -1 13 C-1.01160156 12.31292969 -1.02320313 11.62585938 -1.03515625 10.91796875 C-1.04417969 10.01691406 -1.05320312 9.11585938 -1.0625 8.1875 C-1.07410156 7.29417969 -1.08570313 6.40085938 -1.09765625 5.48046875 C-1 3 -1 3 0 0 Z " fill="#477041" transform="translate(398,245)"/>
<path d="M0 0 C2.375 1.25 2.375 1.25 3.375 4.25 C1.065 4.91 -1.245 5.57 -3.625 6.25 C-3.625 4.93 -3.625 3.61 -3.625 2.25 C-5.275 2.25 -6.925 2.25 -8.625 2.25 C-3.675 -1.05 -3.675 -1.05 0 0 Z " fill="#B0753E" transform="translate(388.625,279.75)"/>
<path d="M0 0 C0 0.99 0 1.98 0 3 C-3.96 4.32 -7.92 5.64 -12 7 C-12.66 6.34 -13.32 5.68 -14 5 C-12.23244474 4.15973604 -10.46082737 3.32801278 -8.6875 2.5 C-7.70136719 2.0359375 -6.71523438 1.571875 -5.69921875 1.09375 C-3 0 -3 0 0 0 Z " fill="#78A741" transform="translate(394,257)"/>
<path d="M0 0 C-3.63622792 2.05001625 -7.49571404 3.11061921 -11.5 4.1875 C-12.49580078 4.47270508 -12.49580078 4.47270508 -13.51171875 4.76367188 C-16.97530326 5.70042976 -19.59580736 6.36341389 -23 5 C-7.25512528 -0.74031891 -7.25512528 -0.74031891 0 0 Z " fill="#AE4234" transform="translate(193,105)"/>
<path d="M0 0 C-6.66008426 4.44005617 -15.3964518 3.05155454 -23 2 C-23 1.67 -23 1.34 -23 1 C-15.30881404 0.24833087 -7.72772107 -0.13690844 0 0 Z " fill="#ECAB1E" transform="translate(321,402)"/>
<path d="M0 0 C0.66 0.33 1.32 0.66 2 1 C0.07289294 11.55808656 0.07289294 11.55808656 -2 16 C-3.80875616 10.57373151 -2.37625921 5.06935297 0 0 Z " fill="#92B6CF" transform="translate(229,297)"/>
<path d="M0 0 C0.33 1.32 0.66 2.64 1 4 C0.01 4.495 0.01 4.495 -1 5 C-1.6161065 7.25001264 -1.6161065 7.25001264 -2 9.875 C-2.5722779 13.38020217 -2.98046184 14.97069276 -5 18 C-4.85764543 16.27054347 -4.71095618 14.54144346 -4.5625 12.8125 C-4.48128906 11.84957031 -4.40007812 10.88664062 -4.31640625 9.89453125 C-3.73016864 4.53154279 -3.73016864 4.53154279 -3 2 C-2.01 1.34 -1.02 0.68 0 0 Z " fill="#FCDC7D" transform="translate(259,270)"/>
<path d="M0 0 C0.66 0.33 1.32 0.66 2 1 C1.71640113 2.4391134 1.42278601 3.87625518 1.125 5.3125 C0.96257812 6.11300781 0.80015625 6.91351563 0.6328125 7.73828125 C0 10 0 10 -2 13 C-2.99 13.495 -2.99 13.495 -4 14 C-3.46148032 8.72250715 -2.22656164 4.74354436 0 0 Z " fill="#A1C3D9" transform="translate(241,257)"/>
<path d="M0 0 C0 0.33 0 0.66 0 1 C-0.67546875 1.19335938 -1.3509375 1.38671875 -2.046875 1.5859375 C-3.38492188 1.97652344 -3.38492188 1.97652344 -4.75 2.375 C-5.63171875 2.63023437 -6.5134375 2.88546875 -7.421875 3.1484375 C-9.98807656 3.91118927 -9.98807656 3.91118927 -12.140625 5.1640625 C-14 6 -14 6 -17 5 C-15.35 4.67 -13.7 4.34 -12 4 C-11.67 2.68 -11.34 1.36 -11 0 C-7.01803543 -1.05404945 -4.01804691 -0.84098656 0 0 Z " fill="#B62E2A" transform="translate(152,225)"/>
<path d="M0 0 C0.66 0 1.32 0 2 0 C0.91103333 5.75762166 -0.29336293 11.39247819 -2 17 C-3.1171875 15.421875 -3.1171875 15.421875 -4 13 C-3.3203125 9.765625 -3.3203125 9.765625 -2.125 6.25 C-1.73570312 5.07953125 -1.34640625 3.9090625 -0.9453125 2.703125 C-0.63335937 1.81109375 -0.32140625 0.9190625 0 0 Z " fill="#325339" transform="translate(417,190)"/>
<path d="M0 0 C0.66 0 1.32 0 2 0 C2.05422947 1.4370809 2.09289723 2.87475462 2.125 4.3125 C2.14820313 5.11300781 2.17140625 5.91351563 2.1953125 6.73828125 C2 9 2 9 0 12 C-0.33 11.67 -0.66 11.34 -1 11 C-1.66 11.99 -2.32 12.98 -3 14 C-2.40380045 9.13103697 -1.43023178 4.67209049 0 0 Z " fill="#BA8551" transform="translate(363,357)"/>
<path d="M0 0 C1.12377697 3.30435084 0.89554742 5.0506862 -0.4375 8.25 C-0.72496094 8.95640625 -1.01242187 9.6628125 -1.30859375 10.390625 C-1.53675781 10.92171875 -1.76492188 11.4528125 -2 12 C-3.32 12 -4.64 12 -6 12 C-6 11.34 -6 10.68 -6 10 C-6.66 10 -7.32 10 -8 10 C-8 9.34 -8 8.68 -8 8 C-5.83125748 8.50603992 -4.00032373 8.99983813 -2 10 C-1.855625 8.72125 -1.71125 7.4425 -1.5625 6.125 C-1.29357254 3.74307106 -1.07773654 2.15547309 0 0 Z " fill="#BA9D5E" transform="translate(362,382)"/>
<path d="M0 0 C1.19587778 3.58763335 0.68815865 5.03021679 -0.3125 8.625 C-0.57675781 9.60726563 -0.84101563 10.58953125 -1.11328125 11.6015625 C-2 14 -2 14 -4 15 C-3.63495936 9.33557626 -2.9445679 4.99296295 0 0 Z " fill="#FAE184" transform="translate(246,315)"/>
<path d="M0 0 C0.66 0.33 1.32 0.66 2 1 C1.71617054 2.75128818 1.42260471 4.50100003 1.125 6.25 C0.96257812 7.22453125 0.80015625 8.1990625 0.6328125 9.203125 C0.05144152 11.77264117 -0.70840265 13.72071056 -2 16 C-2.05423638 14.08364783 -2.09289963 12.16685075 -2.125 10.25 C-2.14820313 9.18265625 -2.17140625 8.1153125 -2.1953125 7.015625 C-2.00487687 4.07529894 -1.52670104 2.47638122 0 0 Z " fill="#D97D38" transform="translate(257,200)"/>
<path d="M0 0 C0.66 0.99 1.32 1.98 2 3 C1.4025696 4.69271945 0.71573527 6.35380887 0 8 C-0.75187983 10.98245665 -1.38296319 13.98702237 -2 17 C-2.33 17 -2.66 17 -3 17 C-3.34548714 10.66606918 -2.29342747 5.89738492 0 0 Z " fill="#FBE289" transform="translate(251,294)"/>
<path d="M0 0 C1.45606519 4.52092968 0.27032841 7.51648796 -1 12 C-1.66 12 -2.32 12 -3 12 C-2.88541307 10.56163249 -2.75790884 9.12429034 -2.625 7.6875 C-2.55539062 6.88699219 -2.48578125 6.08648437 -2.4140625 5.26171875 C-2 3 -2 3 0 0 Z " fill="#937E5E" transform="translate(361,380)"/>
<path d="M0 0 C2.97 0.99 5.94 1.98 9 3 C9 3.66 9 4.32 9 5 C2.25 4.125 2.25 4.125 0 3 C0 2.01 0 1.02 0 0 Z " fill="#A5C65C" transform="translate(291,264)"/>
<path d="M0 0 C-1.90401138 1.90401138 -3.33425686 2.93520439 -6.046875 3.19921875 C-8.03233273 3.1886578 -10.0169914 3.09915043 -12 3 C-12 2.34 -12 1.68 -12 1 C-8.0186217 -0.3271261 -4.14954773 -0.06915913 0 0 Z " fill="#E73D25" transform="translate(180,218)"/>
<path d="M0 0 C0.66 0.66 1.32 1.32 2 2 C1.96712417 4.72869407 1.43602229 7.2966618 1 10 C0.01 10 -0.98 10 -2 10 C-1.34 6.7 -0.68 3.4 0 0 Z " fill="#7A9842" transform="translate(275,198)"/>
<path d="M0 0 C0.33 0 0.66 0 1 0 C1 3.3 1 6.6 1 10 C-0.98 10.99 -0.98 10.99 -3 12 C-2.01 8.04 -1.02 4.08 0 0 Z " fill="#AA7B53" transform="translate(384,286)"/>
<path d="M0 0 C1.32 0.66 2.64 1.32 4 2 C4 3.32 4 4.64 4 6 C2.02 6.66 0.04 7.32 -2 8 C-2 7.01 -2 6.02 -2 5 C-0.68 4.34 0.64 3.68 2 3 C1.34 2.67 0.68 2.34 0 2 C0 1.34 0 0.68 0 0 Z " fill="#678B4E" transform="translate(426,143)"/>
<path d="M0 0 C4.51478398 0.53115106 7.34666857 2.36620292 11 5 C9.1875 5.6875 9.1875 5.6875 7 6 C6 5 5 4 4 3 C1.83700789 3.22757731 1.83700789 3.22757731 0 4 C0 2.68 0 1.36 0 0 Z " fill="#8CAE5F" transform="translate(296,136)"/>
<path d="M0 0 C-0.45261358 1.43931117 -0.91232979 2.87638999 -1.375 4.3125 C-1.63023437 5.11300781 -1.88546875 5.91351563 -2.1484375 6.73828125 C-3 9 -3 9 -5 12 C-4.88648483 10.18674449 -4.75887039 8.37436643 -4.625 6.5625 C-4.55539062 5.55316406 -4.48578125 4.54382813 -4.4140625 3.50390625 C-4.27742188 2.67761719 -4.14078125 1.85132813 -4 1 C-2 0 -2 0 0 0 Z " fill="#ADC667" transform="translate(269,238)"/>
<path d="M0 0 C0.33 0.66 0.66 1.32 1 2 C-0.1875 5.5625 -0.1875 5.5625 -2 9 C-4.1875 9.9375 -4.1875 9.9375 -6 10 C-5.67 8.35 -5.34 6.7 -5 5 C-4.01 5 -3.02 5 -2 5 C-1.34 3.35 -0.68 1.7 0 0 Z " fill="#CB5D31" transform="translate(250,231)"/>
<path d="M0 0 C3.99500618 1.3697164 6.80009492 3.25722422 10 6 C5.26886581 6 3.67452438 4.8394052 0 2 C0 1.34 0 0.68 0 0 Z " fill="#73A742" transform="translate(300,143)"/>
<path d="M0 0 C3.2578125 -0.29296875 3.2578125 -0.29296875 7.125 -0.1875 C9.04699219 -0.14689453 9.04699219 -0.14689453 11.0078125 -0.10546875 C11.99523437 -0.07066406 12.98265625 -0.03585937 14 0 C14 0.33 14 0.66 14 1 C8.72 1.66 3.44 2.32 -2 3 C-1.34 2.01 -0.68 1.02 0 0 Z " fill="#1C4581" transform="translate(118,356)"/>
<path d="M0 0 C0.33 0 0.66 0 1 0 C1 2.97 1 5.94 1 9 C0.34 9 -0.32 9 -1 9 C-1.33 9.99 -1.66 10.98 -2 12 C-3.40907283 9.18185434 -2.50872691 7.82722796 -1.5625 4.875 C-1.27503906 3.96492188 -0.98757812 3.05484375 -0.69140625 2.1171875 C-0.46324219 1.41851562 -0.23507813 0.71984375 0 0 Z " fill="#AF9039" transform="translate(231,350)"/>
<path d="M0 0 C0.99 0.33 1.98 0.66 3 1 C1.71283353 2.00578589 0.42011342 3.00446798 -0.875 4 C-1.95394531 4.8353125 -1.95394531 4.8353125 -3.0546875 5.6875 C-5 7 -5 7 -7 7 C-5.65117186 2.95351557 -3.65173931 2.04497401 0 0 Z " fill="#6F7C87" transform="translate(404,464)"/>
<path d="M0 0 C-0.33 1.65 -0.66 3.3 -1 5 C-2.32 4.67 -3.64 4.34 -5 4 C-5 3.01 -5 2.02 -5 1 C-3 0 -3 0 0 0 Z " fill="#688BB0" transform="translate(87,363)"/>
<path d="M0 0 C2.97 0.99 5.94 1.98 9 3 C9 3.66 9 4.32 9 5 C6.03 4.505 6.03 4.505 3 4 C3 3.34 3 2.68 3 2 C2.01 2 1.02 2 0 2 C0 1.34 0 0.68 0 0 Z " fill="#DE3225" transform="translate(221,226)"/>
<path d="M0 0 C1.60080151 4.00200378 0.29279692 7.04556236 -1 11 C-1.33 11 -1.66 11 -2 11 C-2.25 3.375 -2.25 3.375 0 0 Z " fill="#E4B026" transform="translate(230,359)"/>
<path d="M0 0 C2 2 2 2 2.125 4.625 C2.08375 5.40875 2.0425 6.1925 2 7 C1.34 7 0.68 7 0 7 C-0.66 7.99 -1.32 8.98 -2 10 C-1.54177532 6.53058454 -1.10868317 3.32604951 0 0 Z " fill="#EDA232" transform="translate(257,194)"/>
<path d="M0 0 C2 2 2 2 2.125 4.625 C2.08375 5.40875 2.0425 6.1925 2 7 C1.34 7 0.68 7 0 7 C-0.66 7.99 -1.32 8.98 -2 10 C-1.54177532 6.53058454 -1.10868317 3.32604951 0 0 Z " fill="#ED9A35" transform="translate(260,184)"/>
<path d="M0 0 C0.99 0.33 1.98 0.66 3 1 C1.625 2.5 1.625 2.5 0 4 C-0.66 4 -1.32 4 -2 4 C-2.33 4.99 -2.66 5.98 -3 7 C-3.66 7 -4.32 7 -5 7 C-4.1875 5.0625 -4.1875 5.0625 -3 3 C-2.01 2.67 -1.02 2.34 0 2 C0 1.34 0 0.68 0 0 Z " fill="#6E7787" transform="translate(425,447)"/>
<path d="M0 0 C0 0.33 0 0.66 0 1 C-3.3 1.66 -6.6 2.32 -10 3 C-10.33 2.34 -10.66 1.68 -11 1 C-7.2297564 -1.56376565 -4.32597804 -0.83191885 0 0 Z " fill="#B2352E" transform="translate(132,232)"/>
<path d="M0 0 C0.99 0.33 1.98 0.66 3 1 C-2.75 6 -2.75 6 -5 6 C-3.63016497 2.83884224 -3.0109362 2.0072908 0 0 Z " fill="#68788D" transform="translate(412,458)"/>
<path d="M0 0 C2.9375 0.75 2.9375 0.75 6 2 C6.875 4.125 6.875 4.125 7 6 C1.125 2.25 1.125 2.25 0 0 Z " fill="#A0AAB5" transform="translate(82,445)"/>
<path d="M0 0 C0.33 0 0.66 0 1 0 C1.36923077 6.52307692 1.36923077 6.52307692 -0.5 8.9375 C-0.995 9.288125 -1.49 9.63875 -2 10 C-1.54177532 6.53058454 -1.10868317 3.32604951 0 0 Z " fill="#B18059" transform="translate(374,321)"/>
<path d="M0 0 C1.65 0 3.3 0 5 0 C5.66 1.32 6.32 2.64 7 4 C4.97954558 3.39816251 2.97888961 2.72693904 1 2 C0.67 1.34 0.34 0.68 0 0 Z " fill="#B9302C" transform="translate(237,236)"/>
</svg>
